<svg width="55" height="55" viewBox="0 0 55 55" fill="none" xmlns="http://www.w3.org/2000/svg">
<rect width="55" height="55" rx="27.5" fill="#AEC4FF"/>
<g clip-path="url(#clip0_69_317)">
<path d="M27 15.5C20.3726 15.5 15 20.8726 15 27.5C15 33.1275 18.8746 37.8498 24.1013 39.1467V31.1672H21.6269V27.5H24.1013V25.9198C24.1013 21.8355 25.9498 19.9424 29.9597 19.9424C30.72 19.9424 32.0318 20.0917 32.5685 20.2405V23.5645C32.2853 23.5347 31.7933 23.5198 31.1822 23.5198C29.2147 23.5198 28.4544 24.2653 28.4544 26.203V27.5H32.3741L31.7006 31.1672H28.4544V39.4122C34.3963 38.6946 39.0005 33.6354 39.0005 27.5C39 20.8726 33.6274 15.5 27 15.5Z" fill="#001243"/>
</g>
<defs>
<clipPath id="clip0_69_317">
<rect width="24" height="24" fill="white" transform="translate(15 15.5)"/>
</clipPath>
</defs>
</svg>
