<svg width="55" height="55" viewBox="0 0 55 55" fill="none" xmlns="http://www.w3.org/2000/svg">
<rect width="55" height="55" rx="27.5" fill="#AEC4FF"/>
<g clip-path="url(#clip0_69_319)">
<path d="M27 17.6609C30.2063 17.6609 30.5859 17.675 31.8469 17.7312C33.0188 17.7828 33.6516 17.9797 34.0734 18.1438C34.6313 18.3594 35.0344 18.6219 35.4516 19.0391C35.8734 19.4609 36.1313 19.8594 36.3469 20.4172C36.5109 20.8391 36.7078 21.4766 36.7594 22.6437C36.8156 23.9094 36.8297 24.2891 36.8297 27.4906C36.8297 30.6969 36.8156 31.0766 36.7594 32.3375C36.7078 33.5094 36.5109 34.1422 36.3469 34.5641C36.1313 35.1219 35.8687 35.525 35.4516 35.9422C35.0297 36.3641 34.6313 36.6219 34.0734 36.8375C33.6516 37.0016 33.0141 37.1984 31.8469 37.25C30.5813 37.3062 30.2016 37.3203 27 37.3203C23.7938 37.3203 23.4141 37.3062 22.1531 37.25C20.9813 37.1984 20.3484 37.0016 19.9266 36.8375C19.3688 36.6219 18.9656 36.3594 18.5484 35.9422C18.1266 35.5203 17.8688 35.1219 17.6531 34.5641C17.4891 34.1422 17.2922 33.5047 17.2406 32.3375C17.1844 31.0719 17.1703 30.6922 17.1703 27.4906C17.1703 24.2844 17.1844 23.9047 17.2406 22.6437C17.2922 21.4719 17.4891 20.8391 17.6531 20.4172C17.8688 19.8594 18.1313 19.4562 18.5484 19.0391C18.9703 18.6172 19.3688 18.3594 19.9266 18.1438C20.3484 17.9797 20.9859 17.7828 22.1531 17.7312C23.4141 17.675 23.7938 17.6609 27 17.6609ZM27 15.5C23.7422 15.5 23.3344 15.5141 22.0547 15.5703C20.7797 15.6266 19.9031 15.8328 19.1438 16.1281C18.3516 16.4375 17.6813 16.8453 17.0156 17.5156C16.3453 18.1813 15.9375 18.8516 15.6281 19.6391C15.3328 20.4031 15.1266 21.275 15.0703 22.55C15.0141 23.8344 15 24.2422 15 27.5C15 30.7578 15.0141 31.1656 15.0703 32.4453C15.1266 33.7203 15.3328 34.5969 15.6281 35.3563C15.9375 36.1484 16.3453 36.8188 17.0156 37.4844C17.6813 38.15 18.3516 38.5625 19.1391 38.8672C19.9031 39.1625 20.775 39.3687 22.05 39.425C23.3297 39.4812 23.7375 39.4953 26.9953 39.4953C30.2531 39.4953 30.6609 39.4812 31.9406 39.425C33.2156 39.3687 34.0922 39.1625 34.8516 38.8672C35.6391 38.5625 36.3094 38.15 36.975 37.4844C37.6406 36.8188 38.0531 36.1484 38.3578 35.3609C38.6531 34.5969 38.8594 33.725 38.9156 32.45C38.9719 31.1703 38.9859 30.7625 38.9859 27.5047C38.9859 24.2469 38.9719 23.8391 38.9156 22.5594C38.8594 21.2844 38.6531 20.4078 38.3578 19.6484C38.0625 18.8516 37.6547 18.1813 36.9844 17.5156C36.3188 16.85 35.6484 16.4375 34.8609 16.1328C34.0969 15.8375 33.225 15.6313 31.95 15.575C30.6656 15.5141 30.2578 15.5 27 15.5Z" fill="#001243"/>
<path d="M27 21.3359C23.5969 21.3359 20.8359 24.0969 20.8359 27.5C20.8359 30.9031 23.5969 33.6641 27 33.6641C30.4031 33.6641 33.1641 30.9031 33.1641 27.5C33.1641 24.0969 30.4031 21.3359 27 21.3359ZM27 31.4984C24.7922 31.4984 23.0016 29.7078 23.0016 27.5C23.0016 25.2922 24.7922 23.5016 27 23.5016C29.2078 23.5016 30.9984 25.2922 30.9984 27.5C30.9984 29.7078 29.2078 31.4984 27 31.4984Z" fill="#001243"/>
<path d="M34.8469 21.0914C34.8469 21.8883 34.2 22.5305 33.4078 22.5305C32.6109 22.5305 31.9688 21.8836 31.9688 21.0914C31.9688 20.2945 32.6156 19.6523 33.4078 19.6523C34.2 19.6523 34.8469 20.2992 34.8469 21.0914Z" fill="#001243"/>
</g>
<defs>
<clipPath id="clip0_69_319">
<rect width="24" height="24" fill="white" transform="translate(15 15.5)"/>
</clipPath>
</defs>
</svg>
