<svg width="55" height="55" viewBox="0 0 55 55" fill="none" xmlns="http://www.w3.org/2000/svg">
<rect width="55" height="55" rx="27.5" fill="#AEC4FF"/>
<path d="M38.7609 22.7008C38.7609 22.7008 38.5266 21.0461 37.8047 20.3195C36.8906 19.3633 35.8688 19.3586 35.4 19.3023C32.0438 19.0586 27.0047 19.0586 27.0047 19.0586H26.9953C26.9953 19.0586 21.9563 19.0586 18.6 19.3023C18.1313 19.3586 17.1094 19.3633 16.1953 20.3195C15.4734 21.0461 15.2437 22.7008 15.2437 22.7008C15.2437 22.7008 15 24.6461 15 26.5867V28.4055C15 30.3461 15.2391 32.2914 15.2391 32.2914C15.2391 32.2914 15.4734 33.9461 16.1906 34.6727C17.1047 35.6289 18.3047 35.5961 18.8391 35.6992C20.7609 35.882 27 35.9383 27 35.9383C27 35.9383 32.0438 35.9289 35.4 35.6898C35.8688 35.6336 36.8906 35.6289 37.8047 34.6727C38.5266 33.9461 38.7609 32.2914 38.7609 32.2914C38.7609 32.2914 39 30.3508 39 28.4055V26.5867C39 24.6461 38.7609 22.7008 38.7609 22.7008ZM24.5203 30.6133V23.868L31.0031 27.2523L24.5203 30.6133Z" fill="#001243"/>
</svg>
