<svg width="24" height="24" viewBox="0 0 24 24" fill="none" xmlns="http://www.w3.org/2000/svg">
<g clip-path="url(#clip0_139_6157)">
<path d="M22.3585 8.55346L10.2629 5.53705C9.35541 5.31131 8.42769 5.86779 8.20195 6.77602L5.18554 18.8716C4.9583 19.7799 5.51553 20.7053 6.423 20.9326L18.5179 23.9497C19.4253 24.1755 20.3531 23.6175 20.5788 22.7108L23.596 10.6159C23.8225 9.70767 23.266 8.7807 22.3585 8.55346ZM21.8095 10.7531L19.6151 19.5511C19.5401 19.8526 19.2304 20.0386 18.9289 19.9629L7.93271 17.2209C7.63047 17.1459 7.44447 16.837 7.51947 16.534L9.7139 7.73749C9.7889 7.4345 10.0986 7.25 10.4009 7.32425L21.3963 10.0677C21.6993 10.1412 21.8853 10.4517 21.8095 10.7531Z" fill="#1FE194"/>
<path d="M12.2987 11.9129C13.1487 11.9129 13.8377 11.2239 13.8377 10.3739C13.8377 9.52397 13.1487 8.83496 12.2987 8.83496C11.4488 8.83496 10.7598 9.52397 10.7598 10.3739C10.7598 11.2239 11.4488 11.9129 12.2987 11.9129Z" fill="#1FE194"/>
<path d="M17.0424 12.6095C16.9404 12.296 16.6637 12.227 16.4274 12.4558L14.2202 14.5872C13.984 14.8145 13.651 14.7702 13.4815 14.4875L13.1283 13.9017C12.958 13.619 12.589 13.5268 12.3071 13.697L8.72067 15.8359C8.43793 16.0047 8.47393 16.1877 8.79267 16.2679L11.1168 16.8461C11.4363 16.9264 11.9583 17.0569 12.2786 17.1379L15.0242 17.8219C15.3437 17.9006 15.8664 18.0311 16.1859 18.1106L18.5094 18.6903C18.8289 18.7706 19.0021 18.5996 18.9001 18.2861L17.0424 12.6095Z" fill="#1FE194"/>
<path d="M2.5819 5.98348L13.1551 1.90436C13.4461 1.79261 13.776 1.9381 13.8878 2.22835L15.0173 5.178L17.0317 5.68049L15.2708 1.08913C14.934 0.216909 13.9448 -0.221828 13.0726 0.114912L1.44118 4.59977C0.56896 4.93726 0.130223 5.92648 0.466963 6.7987L4.2206 16.5446L4.93607 13.6745L2.25641 6.71546C2.14541 6.42372 2.29091 6.09448 2.5819 5.98348Z" fill="#1FE194"/>
</g>
<defs>
<clipPath id="clip0_139_6157">
<rect width="24" height="24" fill="white"/>
</clipPath>
</defs>
</svg>
