<svg width="68" height="87" viewBox="0 0 68 87" fill="none" xmlns="http://www.w3.org/2000/svg">
<path d="M39.6285 86.9689C30.3657 86.7292 18.3933 82.618 9.04286 66.3964C8.60573 65.6494 8.17668 64.8714 7.75955 64.0631C6.84102 62.312 5.95016 60.4341 5.09803 58.4233C5.09803 58.4233 -2.41876 41.3952 0.802477 24.8953C1.38773 21.9043 2.37096 19.0972 3.68363 16.5264C5.02737 13.8874 6.72014 11.4953 8.68575 9.40031C15.6215 1.99077 25.9446 -1.66972 36.277 0.733436C36.5315 0.795154 36.7865 0.856872 37.0389 0.927954C40.4082 1.82478 43.4805 3.56011 46.0556 5.91517C47.9552 7.64837 49.5893 9.72039 50.8815 12.0371C51.5855 13.3004 52.3581 14.8332 53.0825 16.5728C53.4562 17.4602 53.815 18.406 54.1496 19.393C55.1741 22.4513 56.457 25.4137 58.1021 28.1608C60.6065 32.335 64.2019 39.2355 66.1786 47.1422C67.3018 51.6446 67.8977 56.4697 67.4691 61.3054C67.3725 62.3826 67.2257 63.4604 67.0252 64.5326C64.4769 78.0032 52.7348 87.3064 39.6285 86.9689Z" fill="#FF36A1"/>
<path d="M66.2126 47.2784C69.4036 60.1217 62.2039 73.4025 49.9868 76.9127C49.648 77.0102 49.3066 77.1021 48.9627 77.1885C29.5531 82.0893 9.63235 67.8594 4.46977 45.4022C1.99808 34.6531 3.35672 23.9653 7.57524 15.2069C12.7621 4.43821 24.0764 -1.70931 35.3878 0.542326C35.6845 0.60149 35.9807 0.665337 36.2774 0.734291C36.5319 0.796009 36.7869 0.857727 37.0393 0.928809C40.4086 1.82563 43.4809 3.56096 46.056 5.91603C47.9557 7.64923 49.5897 9.72125 50.8819 12.038C51.5859 13.3013 52.3585 14.834 53.0829 16.5736C53.4566 17.4611 53.8154 18.4068 54.15 19.3939C55.1745 22.4521 56.4574 25.4146 58.1025 28.1617C60.6069 32.3359 64.2023 39.2364 66.179 47.1431C66.1901 47.1882 66.2011 47.2333 66.2126 47.2784Z" fill="#FF7AC1"/>
<path d="M65.5937 52.6972C65.4933 56.6978 63.3625 59.8842 60.8351 59.8144C58.3072 59.7446 56.3399 56.445 56.4403 52.4444C56.5408 48.4438 58.6715 45.2575 61.199 45.3273C63.7269 45.3971 65.6946 48.6971 65.5937 52.6972Z" fill="#FF36A1"/>
<path d="M17.0057 63.5982C16.7422 63.7501 16.5694 64.0327 16.5426 64.352L16.2889 67.2293L16.2408 67.7584C16.1744 68.556 15.261 68.9195 14.7026 68.3785L12.2977 66.0571C12.0776 65.8417 11.7699 65.7553 11.4724 65.8255L9.04325 66.3976C8.60612 65.6506 8.17707 64.8725 7.75994 64.0642L8.61208 62.128C8.73721 61.8364 8.72189 61.501 8.56611 61.2316L6.89419 58.2849C6.50559 57.5996 7.03678 56.7403 7.79144 56.8364L8.75509 56.9578L11.0395 57.2382C11.3417 57.2749 11.6392 57.1518 11.8414 56.9156L13.9939 54.3401C14.5008 53.7378 15.4419 54.0017 15.5892 54.7874L16.2297 58.1461C16.2881 58.4556 16.4915 58.7191 16.7665 58.8442L19.7719 60.196C20.4717 60.5076 20.5219 61.53 19.8583 61.9203L17.0057 63.5982Z" fill="#F9FFB6"/>
<path d="M42.5041 77.2927C42.2398 77.4489 42.0665 77.7319 42.041 78.0465L42.0308 78.1397L41.7375 81.4576C41.6711 82.2552 40.7577 82.6187 40.1993 82.0777L37.7944 79.7563C37.5743 79.5409 37.2623 79.4532 36.9691 79.5247L33.7789 80.2773C33.037 80.4535 32.4232 79.6618 32.742 78.9348L33.4997 77.2071L34.1101 75.8225C34.2339 75.5356 34.2186 75.1998 34.0641 74.9261L32.3909 71.9837C32.0023 71.2984 32.5335 70.439 33.2881 70.5352L36.5375 70.9328C36.8384 70.9741 37.1359 70.8511 37.3385 70.6148L39.491 68.0393C39.9979 67.437 40.939 67.7009 41.0863 68.4866L41.7269 71.8454C41.7852 72.1548 41.9886 72.4183 42.2649 72.5387L45.269 73.8952C45.9688 74.2068 46.019 75.2292 45.3554 75.6195L42.5041 77.2927Z" fill="#F9FFB6"/>
<path d="M67.4691 61.307C67.3018 61.2794 67.1346 61.1989 66.9907 61.0623L66.0607 60.1629L64.5914 58.7374C64.3671 58.5208 64.0593 58.4344 63.7614 58.5046L60.5742 59.2627C59.828 59.4376 59.2143 58.6459 59.5331 57.9189L60.9015 54.8066C61.0254 54.5198 61.01 54.1839 60.8555 53.9102L59.1823 50.9678C58.7937 50.2825 59.3249 49.4232 60.0851 49.516L63.3289 49.9165C63.6311 49.9531 63.9274 49.8347 64.1308 49.5938L66.1781 47.1426C66.1892 47.189 66.2016 47.2307 66.2126 47.2771C66.2258 47.3337 66.2399 47.3856 66.2488 47.441C67.3257 51.8591 67.8888 56.579 67.4691 61.307Z" fill="#F9FFB6"/>
<path d="M14.4701 37.3542C14.2058 37.5104 14.0339 37.7887 14.007 38.108L13.7048 41.5143C13.6342 42.3107 12.7242 42.6797 12.1653 42.1392L9.76171 39.8131C9.54166 39.5977 9.22924 39.51 8.93597 39.5815L5.74453 40.3387C5.00264 40.5149 4.39014 39.719 4.70895 38.992L6.0761 35.8844C6.20081 35.5929 6.18464 35.2617 6.03013 34.988L4.35822 32.0413C3.96961 31.356 4.49953 30.5009 5.25547 30.5929L8.50352 30.9947C8.80573 31.0313 9.10325 30.9083 9.30117 30.6707L11.4579 28.0965C11.9606 27.4929 12.9059 27.7581 13.0532 28.5438L13.6938 31.9026C13.7521 32.212 13.9513 32.4742 14.2305 32.6006L17.2359 33.9524C17.9344 34.2683 17.9859 35.2864 17.3223 35.6767L14.4701 37.3542Z" fill="#FDFFE8"/>
<path d="M9.15568 14.3059C8.89135 14.4621 8.71812 14.7451 8.68832 15.0584L8.38952 18.4703C8.31887 19.2671 7.4097 19.6315 6.85126 19.0905L6.18258 18.4418L4.4464 16.7691C4.24124 16.5673 3.95691 16.4779 3.68323 16.5264C5.02697 13.8875 6.71974 11.4954 8.68534 9.40039C8.75217 9.46211 8.83049 9.51319 8.91732 9.55192L10.5897 10.3091L11.9219 10.9084C12.6217 11.22 12.6719 12.2424 12.0083 12.6327L9.15568 14.3059Z" fill="#F9FFB6"/>
<path d="M51.5311 17.282L49.1305 14.9618C48.9062 14.7452 48.598 14.6588 48.3048 14.7303L45.1146 15.4828C44.3719 15.6633 43.7547 14.8661 44.0735 14.1391L45.4407 11.0315C45.5696 10.7412 45.5505 10.4045 45.3947 10.1351L43.727 7.18966C43.3342 6.50311 43.8683 5.64927 44.6243 5.74121L46.0557 5.917C47.9553 7.65021 49.5894 9.72222 50.8816 12.039C51.5856 13.3023 52.3581 14.835 53.0826 16.5746L53.0737 16.6636C53.003 17.4595 52.0925 17.8285 51.5311 17.282Z" fill="#FDFFE8"/>
<path d="M6.85117 19.0904L6.1825 18.4417C6.6026 17.3351 7.06655 16.2552 7.57306 15.206C8.42264 13.4417 9.43694 11.8051 10.5891 10.3086L11.9214 10.9079C12.6211 11.2195 12.6714 12.2418 12.0078 12.6322L9.15516 14.3053C8.89084 14.4616 8.7176 14.7446 8.68781 15.0579L8.38901 18.4698C8.31878 19.2666 7.40961 19.6314 6.85117 19.0904Z" fill="#FDFFE8"/>
<path d="M19.8592 61.9207L17.0057 63.5982C16.7423 63.7501 16.5694 64.0327 16.5426 64.352L16.2889 67.2293C13.3678 64.2924 10.8165 60.8396 8.75513 56.9578L11.0395 57.2382C11.3417 57.2749 11.6393 57.1518 11.8414 56.9156L13.9939 54.3401C14.5008 53.7378 15.4419 54.0017 15.5892 54.7874L16.2298 58.1461C16.2881 58.4556 16.4916 58.7191 16.7665 58.8442L19.772 60.196C20.4721 60.5076 20.5228 61.5304 19.8592 61.9207Z" fill="#FDFFE8"/>
<path d="M45.3567 75.6195L42.5041 77.2927C42.2398 77.4489 42.0665 77.7319 42.041 78.0465L42.0308 78.1397C39.1411 78.218 36.2817 77.8916 33.4997 77.2071L34.1101 75.8225C34.2339 75.5356 34.2186 75.1998 34.0641 74.9261L32.3909 71.9837C32.0023 71.2984 32.5335 70.439 33.2881 70.5352L36.5375 70.9328C36.8384 70.9741 37.1359 70.8511 37.3385 70.6148L39.491 68.0393C39.9979 67.437 40.939 67.7009 41.0863 68.4866L41.7269 71.8454C41.7852 72.1548 41.9886 72.4183 42.2649 72.5387L45.2691 73.8952C45.9697 74.2068 46.0203 75.2292 45.3567 75.6195Z" fill="#FDFFE8"/>
<path d="M66.061 60.1625L64.5917 58.737C64.3674 58.5203 64.0597 58.4339 63.7617 58.5042L63.5127 58.5642L60.5745 59.2627C59.8284 59.4376 59.2146 58.6459 59.5334 57.9189L60.9019 54.8066C61.0257 54.5198 61.0104 54.1839 60.8559 53.9102L59.1827 50.9678C58.7941 50.2825 59.3253 49.4232 60.0855 49.5159L63.3293 49.9165C63.6315 49.9531 63.9277 49.8347 64.1312 49.5938L64.9229 48.6489L66.1785 47.1426C66.1896 47.189 66.2019 47.2307 66.213 47.2771C66.2262 47.3337 66.2402 47.3856 66.2492 47.4409C67.2979 51.7693 67.1664 56.141 66.061 60.1625Z" fill="#FCFFD0"/>
<path d="M42.273 5.90355C41.8643 7.23537 39.4795 7.62313 36.9461 6.76972C34.4127 5.91632 32.6901 4.14523 33.0992 2.81341C33.5078 1.48158 35.8926 1.09382 38.426 1.94681C40.9594 2.80064 42.682 4.57172 42.273 5.90355Z" fill="#FF36A1"/>
<path d="M63.5127 58.5637L60.5745 59.2622C59.8284 59.4371 59.2146 58.6454 59.5334 57.9184L60.9019 54.8062C61.0257 54.5193 61.0104 54.1835 60.8559 53.9098L59.1827 50.9673C58.7941 50.282 59.3253 49.4227 60.0855 49.5155L63.3293 49.916C63.6315 49.9526 63.9277 49.8343 64.1312 49.5934L64.9229 48.6484C65.3813 49.8143 65.6311 51.2048 65.5937 52.6975C65.5337 55.1399 64.7113 57.2813 63.5127 58.5637Z" fill="#FDFFE8"/>
<path d="M48.9755 42.0351C43.5401 47.6305 35.8096 50.2916 28.0391 49.6098C24.8332 49.3246 21.2021 48.6414 17.4846 47.2381C14.3131 46.0361 12.0521 43.2673 11.4847 40.0256C12.419 42.4943 14.3953 44.5131 16.9751 45.4925C20.6632 46.8878 24.2641 47.5629 27.4475 47.8463C35.155 48.5252 42.8293 45.8854 48.2179 40.3278C53.6094 34.7758 53.4422 30.0235 52.1708 26.8457C53.9895 29.9141 55.4022 35.4083 48.9755 42.0351Z" fill="#FF36A1"/>
<path d="M62.5275 75.2811C61.5974 76.6963 61.3122 76.9334 61.3122 76.9334C57.925 62.2399 45.9152 54.5788 37.8204 50.9881C36.7248 50.5033 35.6981 50.0905 34.7766 49.7504C31.9567 48.6957 30.1018 48.276 30.1018 48.276L31.2655 46.8254C33.5542 47.4673 35.6819 48.1985 37.6544 49.0013C38.5486 49.3575 39.4152 49.7351 40.2456 50.1267C41.3063 50.6212 42.3211 51.1358 43.2847 51.6704C43.5435 50.3888 43.9283 49.1328 44.4054 47.9125C44.9136 46.6241 45.5291 45.3799 46.2152 44.1843C47.8931 41.2597 50.0009 38.6429 52.0299 36.4794C52.5794 35.889 53.1242 35.3361 53.6512 34.8164C56.6975 31.8288 59.2032 30.0586 59.2032 30.0586C59.6714 30.8814 60.166 31.8701 60.166 31.8701C57.2329 33.8234 54.8285 35.9486 52.8667 38.0832C50.5453 40.6017 48.8393 43.1342 47.5981 45.408C45.9501 48.413 45.115 50.9639 44.7349 52.4519C59.7063 61.7257 62.5275 75.2811 62.5275 75.2811Z" fill="#FF36A1"/>
<path d="M40.2456 50.1254C39.4497 50.4591 38.6426 50.7468 37.8207 50.9869C36.7251 50.5021 35.6985 50.0892 34.777 49.7491C35.7521 49.5567 36.7098 49.3069 37.6547 49C38.5486 49.3563 39.4147 49.7338 40.2456 50.1254Z" fill="#DA0B79"/>
<path d="M52.8667 38.0808C50.5453 40.5993 48.8393 43.1319 47.5982 45.4056C46.5954 46.3344 45.5253 47.1678 44.405 47.9101C44.9132 46.6217 45.5287 45.3775 46.2148 44.1819C46.9137 43.5809 47.5794 42.9318 48.2175 42.2465C50.109 40.2077 51.3136 38.274 52.0295 36.4774C52.579 35.8871 53.1238 35.3342 53.6508 34.8145C53.5541 35.839 53.3111 36.9329 52.8667 38.0808Z" fill="#DA0B79"/>
<path d="M34.2186 6.50509C39.9205 7.21506 46.5847 10.1371 48.7406 19.4552C49.165 21.2897 49.9017 23.0471 50.965 24.6007C52.931 27.4738 55.0894 33.2497 48.2171 40.3315C42.8276 45.8848 35.155 48.5247 27.4463 47.8462C24.2642 47.5661 20.6637 46.8881 16.976 45.4937C13.1793 44.058 10.6982 40.36 10.897 36.3058C10.8995 36.2501 10.9025 36.1943 10.9059 36.1381C10.971 35.0259 10.8774 33.9124 10.5948 32.8347C10.2257 31.4267 9.74732 29.2027 9.54557 26.5416C9.08928 20.5214 11.7414 14.631 16.6499 11.1156C16.7448 11.0475 16.841 10.9794 16.9385 10.9117C21.9764 7.40362 28.1264 5.74661 34.2186 6.50509Z" fill="#FCB4A5"/>
<path d="M48.3383 17.9554C45.7065 11.1197 39.9936 8.79824 34.8417 8.2066C32.2197 7.90568 29.7417 8.05337 27.891 8.28918C25.5142 8.5867 23.197 9.24474 21.0693 10.3399C20.6313 10.5668 20.2095 10.803 19.8132 11.0507C8.5929 17.9044 10.5223 32.3153 10.5947 32.8205C10.2214 31.4142 9.74511 29.1928 9.54506 26.5402C9.09005 20.5229 11.7426 14.6299 16.6503 11.1141C16.743 11.0494 16.8414 10.9813 16.9397 10.9132C18.0353 10.1501 19.1837 9.4716 20.3759 8.89486C24.6531 6.79944 29.4509 5.91453 34.2164 6.50617C34.6642 6.5598 35.1162 6.63387 35.5699 6.71772C40.6116 7.65242 46.0496 10.4897 48.3383 17.9554Z" fill="#F09684"/>
<path d="M29.3727 9.11406L32.8017 12.197C32.9809 13.7118 32.6216 14.7193 32.0977 15.3901C31.0438 16.7539 29.0765 16.968 27.62 16.0499C26.4452 15.3109 26.3975 14.2039 26.3975 14.2039C26.0323 15.568 25.0989 16.0069 24.3353 16.1282C23.7547 16.218 23.1541 16.1184 22.614 15.8983C19.7852 14.7495 19.5958 12.4966 19.8133 11.0503C19.9278 10.2697 20.1636 9.72443 20.1636 9.72443L20.3764 8.89486C24.6537 6.79944 29.4515 5.91453 34.2169 6.50617C34.6647 6.5598 35.1167 6.63387 35.5705 6.71772C35.4045 7.3383 35.1521 7.82268 34.8418 8.2066C33.0541 10.4438 29.3727 9.11406 29.3727 9.11406Z" fill="#F09684"/>
<path d="M19.9332 21.651C19.2522 22.4295 18.4401 23.6026 18.2004 24.9685C18.0804 25.6516 17.3781 26.0705 16.746 25.7848C16.0254 25.4592 15.3571 24.7595 15.6768 23.2587C15.8032 22.6641 16.0624 22.1039 16.4119 21.6063C16.9435 20.8487 17.9063 19.8238 19.1896 19.8897C20.0732 19.9353 20.5159 20.9849 19.9332 21.651Z" fill="#621849"/>
<path d="M41.7775 14.9011C42.6551 14.856 43.8652 14.9309 44.9025 15.4893C45.4214 15.7685 46.0705 15.52 46.2122 14.9479C46.3739 14.2958 46.2582 13.482 45.0885 12.9061C44.625 12.678 44.1151 12.5562 43.5992 12.5277C42.8139 12.4843 41.6238 12.5877 40.993 13.479C40.5589 14.0928 41.0262 14.9398 41.7775 14.9011Z" fill="#621849"/>
<path d="M38.9023 28.437C38.5596 29.7164 37.2453 30.4758 35.9658 30.1331C34.6863 29.7905 33.927 28.4761 34.2692 27.1966C34.6118 25.9172 35.9262 25.1578 37.2057 25.5C38.4852 25.8431 39.2449 27.1575 38.9023 28.437Z" fill="#E87A64"/>
<path d="M38.1482 27.8551C37.9328 28.6596 37.1063 29.1372 36.3018 28.9218C35.4973 28.7064 35.0198 27.8798 35.2351 27.0754C35.4505 26.2709 36.2771 25.7933 37.0816 26.0087C37.886 26.2241 38.3632 27.0507 38.1482 27.8551Z" fill="#F28B77"/>
<path d="M38.6189 29.0852C38.7427 28.8872 38.8381 28.6723 38.9015 28.4344C39.2441 27.1536 38.4869 25.8426 37.2062 25.4996C35.9254 25.1569 34.6145 25.9141 34.2714 27.1949C34.208 27.4324 34.1816 27.6708 34.1901 27.904C34.0637 27.4601 34.0518 26.9757 34.179 26.5003C34.5595 25.0786 36.0212 24.2342 37.4428 24.6147C38.8645 24.9952 39.7043 26.4556 39.3237 27.8772C39.1969 28.3535 38.95 28.7638 38.6189 29.0852Z" fill="#621849"/>
<path d="M24.4553 32.8151C24.7571 34.0674 23.4189 35.4635 21.4665 35.9338C19.5141 36.4041 17.6868 35.7704 17.385 34.5181C17.0832 33.2659 18.4214 31.8698 20.3739 31.3995C22.3263 30.9291 24.1535 31.5629 24.4553 32.8151Z" fill="#FF8683"/>
<path d="M19.7115 35.2973C19.4808 35.2888 19.3008 35.0956 19.3089 34.8649L19.3761 33.0006C19.3846 32.7699 19.5783 32.5898 19.8086 32.5979C20.0393 32.6064 20.2193 32.8001 20.2112 33.0304L20.144 34.8947C20.1359 35.1254 19.9422 35.3054 19.7115 35.2973Z" fill="#EA4567"/>
<path d="M21.8241 34.7876C21.5934 34.7791 21.4133 34.5854 21.4214 34.3551L21.4887 32.4908C21.4972 32.2601 21.6908 32.0801 21.9211 32.0882C22.1518 32.0967 22.3318 32.2903 22.3238 32.5206L22.2565 34.3849C22.2484 34.6156 22.0548 34.7961 21.8241 34.7876Z" fill="#EA4567"/>
<path d="M50.4473 22.4289C50.7452 23.4173 49.7377 24.595 48.1969 25.0598C46.6561 25.5246 45.1655 25.1003 44.8672 24.1123C44.5692 23.124 45.5767 21.9463 47.1175 21.4815C48.6583 21.0167 50.1493 21.441 50.4473 22.4289Z" fill="#FF8683"/>
<path d="M46.7642 24.6273C46.5795 24.6312 46.4263 24.4843 46.4224 24.2996L46.3918 22.8048C46.388 22.62 46.5348 22.4668 46.7195 22.463C46.9043 22.4591 47.0575 22.606 47.0613 22.7907L47.092 24.2855C47.0958 24.4707 46.949 24.6235 46.7642 24.6273Z" fill="#EA4567"/>
<path d="M48.4315 24.1254C48.2467 24.1292 48.0935 23.9824 48.0897 23.7976L48.059 22.3028C48.0552 22.1181 48.202 21.9648 48.3868 21.961C48.5715 21.9572 48.7247 22.104 48.7286 22.2887L48.7592 23.7836C48.763 23.9688 48.6162 24.1216 48.4315 24.1254Z" fill="#EA4567"/>
<path d="M21.6102 9.65544C21.2289 10.9068 21.042 12.5443 21.8856 13.9902C22.8787 15.6919 25.3674 15.5535 26.2459 13.7901C26.3408 13.5994 26.4353 13.3913 26.5289 13.164C26.5289 13.164 27.2066 15.0789 28.9955 15.5242C30.7317 15.9558 32.3891 14.6908 32.7356 12.9358C33.0076 11.5576 32.5556 9.89848 29.3739 9.1136C29.3739 9.1136 31.2667 9.35409 32.811 8.44066C34.8813 7.2161 34.5561 4.12808 32.3525 3.16486C30.2073 2.22718 26.8584 2.03351 23.2464 6.62957C22.5318 7.53745 21.9474 8.55005 21.6102 9.65544Z" fill="#621849"/>
<path d="M33.2196 5.32861C33.1949 6.52381 31.6916 7.46235 29.8618 7.42404C28.0319 7.38616 26.569 6.38633 26.5937 5.19071C26.6184 3.99509 28.1217 3.05698 29.9516 3.09486C31.7814 3.13359 33.2443 4.13342 33.2196 5.32861Z" fill="#701B54"/>
<path d="M32.2973 12.9718C31.9729 14.1832 30.7279 14.9025 29.5166 14.5782C28.3052 14.2538 27.5859 13.0088 27.9102 11.7974C28.2345 10.5861 29.4795 9.86675 30.6909 10.1911C31.9027 10.5158 32.6216 11.7604 32.2973 12.9718Z" fill="#701B54"/>
<path d="M25.8671 13.2014C25.5981 14.2072 24.7226 14.8465 23.9122 14.6294C23.1018 14.4123 22.6629 13.4214 22.9319 12.4157C23.2009 11.4099 24.0765 10.7706 24.8869 10.9876C25.6973 11.2047 26.1361 12.1956 25.8671 13.2014Z" fill="#701B54"/>
<path d="M29.4979 25.584C29.4979 25.584 29.686 26.8822 28.8786 28.1566C28.2239 29.19 27.0913 29.8119 25.8799 29.9843C24.7597 30.1434 23.1524 30.1247 21.9836 29.0827" stroke="#621849" stroke-width="3.1639" stroke-miterlimit="10" stroke-linecap="round" stroke-linejoin="round"/>
<path d="M40.5896 21.636C40.5896 21.636 40.6896 21.7484 40.8986 21.8927C42.628 23.0875 45.1035 22.2217 45.613 20.182C45.673 19.9424 45.7088 19.6815 45.713 19.3984" stroke="#621849" stroke-width="3.1639" stroke-miterlimit="10" stroke-linecap="round" stroke-linejoin="round"/>
<path d="M34.5192 35.4414C34.5192 35.4414 36.1251 36.1395 37.4748 35.7036" stroke="#621849" stroke-width="2.1092" stroke-miterlimit="10" stroke-linecap="round" stroke-linejoin="round"/>
</svg>
