<svg width="32" height="32" viewBox="0 0 32 32" fill="none" xmlns="http://www.w3.org/2000/svg">
<path d="M24.3825 31.7791H7.39658C3.31158 31.7791 0 28.4675 0 24.3825V7.39658C0 3.31158 3.31158 0 7.39658 0H24.3825C28.4675 0 31.7791 3.31158 31.7791 7.39658V24.3825C31.7792 28.4675 28.4676 31.7791 24.3825 31.7791Z" fill="#D6FB9A"/>
<path d="M23.4504 9.88561C19.7927 13.644 16.6109 17.8648 14.0025 22.4147C13.7409 22.8712 13.0677 22.8193 12.8771 22.3288C11.7926 19.5378 10.2765 16.9144 8.39851 14.5819C8.11122 14.2251 8.26296 13.6932 8.69386 13.5379C9.44927 13.2657 10.2298 13.127 10.985 13.3557C11.7499 13.5875 12.3665 14.1768 12.7914 14.8538C13.0189 15.2162 13.4934 16.1197 13.8852 16.8813C16.129 13.7746 18.8742 11.1654 21.9308 9.23079C22.447 8.90401 23.1285 9.03865 23.4787 9.53933C23.5538 9.64654 23.5417 9.79181 23.4504 9.88561Z" fill="#025738"/>
</svg>
