<svg width="18" height="20" viewBox="0 0 18 20" fill="none" xmlns="http://www.w3.org/2000/svg">
<path d="M17.1599 15.5861C16.8575 16.2848 16.4995 16.928 16.0847 17.5194C15.5192 18.3255 15.0563 18.8835 14.6995 19.1934C14.1464 19.702 13.5539 19.9625 12.9193 19.9773C12.4638 19.9773 11.9144 19.8477 11.2749 19.5847C10.6333 19.323 10.0437 19.1934 9.50462 19.1934C8.9392 19.1934 8.3328 19.323 7.68418 19.5847C7.03457 19.8477 6.51125 19.9847 6.11114 19.9983C5.50264 20.0242 4.89612 19.7563 4.29071 19.1934C3.9043 18.8563 3.42098 18.2786 2.84199 17.4601C2.22077 16.586 1.71005 15.5725 1.30994 14.417C0.881434 13.1689 0.666626 11.9603 0.666626 10.7902C0.666626 9.44984 0.956246 8.29383 1.53635 7.32509C1.99226 6.54697 2.59879 5.93316 3.3579 5.48255C4.11701 5.03195 4.93723 4.80233 5.82054 4.78764C6.30385 4.78764 6.93766 4.93714 7.72529 5.23096C8.5107 5.52576 9.015 5.67526 9.23611 5.67526C9.40141 5.67526 9.96164 5.50045 10.9114 5.15195C11.8095 4.82875 12.5675 4.69492 13.1884 4.74764C14.8711 4.88344 16.1353 5.54675 16.976 6.74178C15.4711 7.6536 14.7267 8.93072 14.7415 10.5691C14.7551 11.8452 15.218 12.9071 16.1279 13.7503C16.5402 14.1417 17.0007 14.4441 17.513 14.6589C17.4019 14.9812 17.2846 15.2898 17.1599 15.5861V15.5861ZM13.3008 0.400114C13.3008 1.40034 12.9354 2.33425 12.207 3.19867C11.328 4.2263 10.2648 4.8201 9.11191 4.7264C9.09722 4.60641 9.0887 4.48011 9.0887 4.3474C9.0887 3.38718 9.50671 2.35956 10.249 1.51934C10.6196 1.09392 11.091 0.74019 11.6626 0.458013C12.2329 0.180046 12.7724 0.0263242 13.2798 0C13.2946 0.133715 13.3008 0.267438 13.3008 0.400101V0.400114Z" fill="black"/>
</svg>
