<svg width="20" height="20" viewBox="0 0 20 20" fill="none" xmlns="http://www.w3.org/2000/svg">
<path d="M11.8334 18.7499H8.1667M15.5 6.83325C15.5 5.37456 14.9206 3.97561 13.8891 2.94416C12.8577 1.91271 11.4587 1.33325 10 1.33325C8.54135 1.33325 7.1424 1.91271 6.11095 2.94416C5.0795 3.97561 4.50004 5.37456 4.50004 6.83325C4.50004 9.66592 3.78547 11.6054 2.98723 12.8882C2.3139 13.9703 1.97724 14.5113 1.98959 14.6623C2.00325 14.8294 2.03866 14.8931 2.17333 14.993C2.29496 15.0833 2.84325 15.0833 3.93982 15.0833H16.0603C17.1568 15.0833 17.7051 15.0833 17.8267 14.993C17.9614 14.8931 17.9968 14.8294 18.0105 14.6623C18.0228 14.5113 17.6862 13.9703 17.0128 12.8882C16.2146 11.6054 15.5 9.66592 15.5 6.83325Z" stroke="#656A76" stroke-width="2" stroke-linecap="round" stroke-linejoin="round"/>
</svg>
