<svg width="22" height="22" viewBox="0 0 22 22" fill="none" xmlns="http://www.w3.org/2000/svg">
<path fill-rule="evenodd" clip-rule="evenodd" d="M10.8733 1.83354H11.1256C11.8547 1.83314 12.3961 1.83285 12.8651 1.95852C14.1304 2.29757 15.1188 3.28591 15.4578 4.55125C15.5333 4.83307 15.5634 5.14104 15.5752 5.50016H17.268C17.7512 5.50015 18.1681 5.50013 18.5115 5.52819C18.8739 5.5578 19.2343 5.62317 19.5812 5.7999C20.0986 6.06355 20.5193 6.48424 20.783 7.00169C20.9597 7.34854 21.0251 7.70899 21.0547 8.07139C21.0827 8.41474 21.0827 8.8316 21.0827 9.31481V16.3522C21.0827 16.8354 21.0827 17.2523 21.0547 17.5956C21.0251 17.958 20.9597 18.3185 20.783 18.6653C20.5193 19.1828 20.0986 19.6034 19.5812 19.8671C19.2343 20.0438 18.8739 20.1092 18.5115 20.1388C18.1681 20.1669 17.7513 20.1668 17.2681 20.1668H4.73071C4.24752 20.1668 3.83058 20.1669 3.48724 20.1388C3.12484 20.1092 2.76439 20.0438 2.41754 19.8671C1.9001 19.6034 1.4794 19.1828 1.21575 18.6653C1.03902 18.3185 0.973649 17.958 0.94404 17.5956C0.915987 17.2523 0.916001 16.8354 0.916016 16.3522V9.31483C0.916001 8.83163 0.915987 8.41474 0.94404 8.07139C0.973649 7.70899 1.03902 7.34854 1.21575 7.00169C1.4794 6.48424 1.9001 6.06355 2.41754 5.7999C2.76439 5.62317 3.12484 5.5578 3.48724 5.52819C3.8306 5.50013 4.24746 5.50015 4.73068 5.50016H6.42364C6.4355 5.14104 6.46553 4.83307 6.54104 4.55125C6.88009 3.28591 7.86843 2.29757 9.13377 1.95852C9.60278 1.83285 10.1442 1.83314 10.8733 1.83354ZM13.7404 5.50016H8.25848C8.2669 5.26411 8.28273 5.13463 8.31191 5.02575C8.48143 4.39308 8.9756 3.89891 9.60827 3.72939C9.81203 3.67479 10.0879 3.66692 10.9994 3.66692C11.9109 3.66692 12.1869 3.67479 12.3906 3.72939C13.0233 3.89891 13.5174 4.39308 13.687 5.02575C13.7161 5.13463 13.732 5.26411 13.7404 5.50016Z" fill="#025747"/>
</svg>
