<svg width="20" height="20" viewBox="0 0 20 20" fill="none" xmlns="http://www.w3.org/2000/svg">
<path d="M7.50006 13.5416C7.2084 13.5416 6.96187 13.4409 6.76048 13.2395C6.55909 13.0382 6.4584 12.7916 6.4584 12.5C6.4584 12.2083 6.55909 11.9618 6.76048 11.7604C6.96187 11.559 7.2084 11.4583 7.50006 11.4583C7.79173 11.4583 8.03826 11.559 8.23965 11.7604C8.44103 11.9618 8.54173 12.2083 8.54173 12.5C8.54173 12.7916 8.44103 13.0382 8.23965 13.2395C8.03826 13.4409 7.79173 13.5416 7.50006 13.5416ZM12.5001 13.5416C12.2084 13.5416 11.9619 13.4409 11.7605 13.2395C11.5591 13.0382 11.4584 12.7916 11.4584 12.5C11.4584 12.2083 11.5591 11.9618 11.7605 11.7604C11.9619 11.559 12.2084 11.4583 12.5001 11.4583C12.7917 11.4583 13.0383 11.559 13.2396 11.7604C13.441 11.9618 13.5417 12.2083 13.5417 12.5C13.5417 12.7916 13.441 13.0382 13.2396 13.2395C13.0383 13.4409 12.7917 13.5416 12.5001 13.5416ZM10.0001 18.3333C11.8612 18.3333 13.4376 17.6875 14.7292 16.3958C16.0209 15.1041 16.6667 13.5277 16.6667 11.6666C16.6667 11.3333 16.6459 11.0104 16.6042 10.6979C16.5626 10.3854 16.4862 10.0833 16.3751 9.79163C16.0834 9.86107 15.7917 9.91316 15.5001 9.94788C15.2084 9.9826 14.9028 9.99996 14.5834 9.99996C13.3195 9.99996 12.1251 9.72913 11.0001 9.18746C9.87506 8.64579 8.91673 7.88885 8.12506 6.91663C7.68062 7.99996 7.0452 8.94093 6.21881 9.73954C5.39242 10.5382 4.43062 11.1388 3.3334 11.5416V11.6666C3.3334 13.5277 3.97923 15.1041 5.2709 16.3958C6.56256 17.6875 8.13895 18.3333 10.0001 18.3333ZM8.48235 5.18434C9.11374 6.34878 9.98958 7.2342 11.1099 7.84059C12.23 8.44684 13.3878 8.74996 14.5834 8.74996C14.8099 8.74996 15.0308 8.73822 15.2461 8.71475C15.4614 8.69128 15.6796 8.6576 15.9007 8.61371C15.344 7.50802 14.5377 6.62927 13.4817 5.97746C12.4256 5.32579 11.2651 4.99996 10.0001 4.99996C9.7202 4.99996 9.45923 5.01572 9.21715 5.04725C8.9752 5.07878 8.73027 5.12447 8.48235 5.18434ZM3.56735 10.0754C4.35055 9.68329 5.09416 9.11038 5.79819 8.35663C6.50221 7.60288 6.9568 6.69927 7.16194 5.64579C6.25055 6.05927 5.48027 6.65357 4.8511 7.42871C4.2218 8.20385 3.79388 9.08607 3.56735 10.0754ZM2.75006 8.66038C3.09617 7.73718 3.60715 6.91635 4.28298 6.19788C4.95867 5.47941 5.75006 4.92038 6.65715 4.52079C6.38895 4.18635 6.06041 3.91552 5.67152 3.70829C5.28277 3.50107 4.85347 3.39746 4.3836 3.39746C3.57346 3.39746 2.88874 3.67732 2.32944 4.23704C1.77013 4.79663 1.49048 5.48204 1.49048 6.29329C1.49048 6.78663 1.6061 7.23739 1.83735 7.64559C2.06874 8.05392 2.37298 8.39218 2.75006 8.66038ZM10.0015 19.5833C8.90652 19.5833 7.87728 19.3754 6.91381 18.9598C5.95034 18.5442 5.11228 17.9802 4.39965 17.2677C3.68701 16.5552 3.12277 15.7173 2.70694 14.7541C2.29124 13.7909 2.0834 12.7618 2.0834 11.6666C2.0834 11.3557 2.10187 11.0475 2.13881 10.742C2.17562 10.4365 2.23353 10.1432 2.31256 9.86225C1.68867 9.50642 1.18735 9.01364 0.808604 8.38392C0.429854 7.75434 0.240479 7.05746 0.240479 6.29329C0.240479 5.14052 0.643256 4.16135 1.44881 3.35579C2.25437 2.55024 3.23353 2.14746 4.38631 2.14746C5.10645 2.14746 5.76888 2.31788 6.3736 2.65871C6.97819 2.99954 7.46798 3.46371 7.84298 4.05121C8.1827 3.95079 8.53458 3.87552 8.8986 3.82538C9.26249 3.7751 9.62965 3.74996 10.0001 3.74996C11.0952 3.74996 12.1244 3.95774 13.0876 4.37329C14.0508 4.78885 14.8886 5.35281 15.6011 6.06517C16.3136 6.77753 16.8776 7.61524 17.2932 8.57829C17.7089 9.54135 17.9167 10.5703 17.9167 11.6652C17.9167 12.7602 17.709 13.7894 17.2934 14.7529C16.8778 15.7164 16.3139 16.5544 15.6015 17.267C14.8892 17.9797 14.0515 18.5439 13.0884 18.9598C12.1253 19.3754 11.0964 19.5833 10.0015 19.5833Z" fill="#555555"/>
</svg>
