<svg width="38" height="38" viewBox="0 0 38 38" fill="none" xmlns="http://www.w3.org/2000/svg">
<path fill-rule="evenodd" clip-rule="evenodd" d="M7.91663 1.58398C5.29327 1.58398 3.16663 3.71063 3.16663 6.33398V26.9173C3.16663 29.5407 5.29327 31.6673 7.91663 31.6673H8.07179L12.8827 36.2817C13.5045 36.8781 14.489 36.8678 15.0983 36.2586L19.0169 32.3399L22.9357 36.2587C23.5463 36.8693 24.5336 36.878 25.1549 36.2782L29.9312 31.6673H30.0833C32.7066 31.6673 34.8333 29.5407 34.8333 26.9173V6.33398C34.8333 3.71063 32.7066 1.58398 30.0833 1.58398H7.91663ZM25.1354 28.1669C24.4245 29.3677 23.3712 30.3417 22.1099 30.9546L24.0748 32.9194L27.0326 30.0641L25.1354 28.1669ZM19.0111 28.5005L19.0228 28.5005L19.039 28.5005C21.2071 28.4795 22.9583 26.7154 22.9583 24.5423C22.9583 22.3562 21.1861 20.584 19 20.584C16.8138 20.584 15.0416 22.3562 15.0416 24.5423C15.0416 26.7225 16.8042 28.491 18.9821 28.5006L19.0094 28.5005L19.0111 28.5005ZM13.9556 32.9229L15.9129 30.9656C14.6415 30.3535 13.5797 29.3749 12.8645 28.1669L10.9711 30.0603L13.9556 32.9229ZM12.6666 9.50065C12.6666 8.6262 13.3755 7.91732 14.25 7.91732H23.75C24.6244 7.91732 25.3333 8.6262 25.3333 9.50065C25.3333 10.3751 24.6244 11.084 23.75 11.084H14.25C13.3755 11.084 12.6666 10.3751 12.6666 9.50065ZM11.0833 13.459C10.2088 13.459 9.49996 14.1679 9.49996 15.0423C9.49996 15.9168 10.2088 16.6257 11.0833 16.6257H26.9166C27.7911 16.6257 28.5 15.9168 28.5 15.0423C28.5 14.1679 27.7911 13.459 26.9166 13.459H11.0833Z" fill="#B12EE4"/>
</svg>
