<svg width="20" height="20" viewBox="0 0 20 20" fill="none" xmlns="http://www.w3.org/2000/svg">
<path fill-rule="evenodd" clip-rule="evenodd" d="M10.0002 0.833496C4.93755 0.833496 0.833496 4.93755 0.833496 10.0002C0.833496 15.0628 4.93755 19.1668 10.0002 19.1668C15.0628 19.1668 19.1668 15.0628 19.1668 10.0002C19.1668 4.93755 15.0628 0.833496 10.0002 0.833496ZM14.3394 8.08942C14.6649 7.76398 14.6649 7.23634 14.3394 6.91091C14.014 6.58547 13.4863 6.58547 13.1609 6.91091L8.75016 11.3217L6.83942 9.41091C6.51398 9.08547 5.98634 9.08547 5.66091 9.41091C5.33547 9.73634 5.33547 10.264 5.66091 10.5894L8.16091 13.0894C8.48634 13.4149 9.01398 13.4149 9.33942 13.0894L14.3394 8.08942Z" fill="#8BD219"/>
</svg>
