<svg width="38" height="38" viewBox="0 0 38 38" fill="none" xmlns="http://www.w3.org/2000/svg">
<path d="M26.1249 3.16732C22.1899 3.16732 18.9999 6.35729 18.9999 10.2923C18.9999 14.2273 22.1899 17.4173 26.1249 17.4173C30.0599 17.4173 33.2499 14.2273 33.2499 10.2923C33.2499 6.35729 30.0599 3.16732 26.1249 3.16732Z" fill="#FFB12B"/>
<path d="M19.0503 2.81781C17.0691 4.69363 15.8333 7.34865 15.8333 10.2923C15.8333 12.1877 16.3456 13.9634 17.2394 15.4885C16.5472 15.7128 15.8085 15.834 15.0416 15.834C11.1066 15.834 7.91659 12.644 7.91659 8.70898C7.91659 4.77396 11.1066 1.58398 15.0416 1.58398C16.5281 1.58398 17.9082 2.03919 19.0503 2.81781Z" fill="#FFB12B"/>
<path d="M28.039 25.1651C28.039 26.4179 27.2103 27.4776 26.068 27.8318L26.8025 27.7977C27.6052 27.7977 28.3857 27.5452 29.0272 27.0763L33.5062 23.8085C34.6241 22.9934 36.1888 23.1016 37.177 24.0628C38.2745 25.1305 38.2745 26.8599 37.177 27.9258L33.3338 31.6642C32.2993 32.6706 30.9793 33.3577 29.5444 33.6372L24.1124 34.694C23.0353 34.9032 21.9248 34.8779 20.8588 34.6182L15.946 33.4244C15.3583 33.2801 14.7558 33.208 14.1495 33.208C13.5059 33.208 13.1841 33.208 12.9259 33.1158C12.4787 32.9561 12.1268 32.6042 11.9671 32.157C11.8749 31.8988 11.8749 31.577 11.8749 30.9334V25.5039C11.8749 25.0513 11.8749 24.8251 11.933 24.6165C11.9845 24.4318 12.0691 24.258 12.1827 24.1035C12.311 23.9291 12.4891 23.7895 12.8452 23.5102L14.7224 22.0385C14.7224 22.0385 17.8333 20.584 19.5518 20.584C20.2637 20.584 20.9719 20.6706 21.6634 20.8421L25.9126 21.8984C27.1621 22.2081 28.039 23.3252 28.039 24.6065V25.1651Z" fill="#FFB12B"/>
<path fill-rule="evenodd" clip-rule="evenodd" d="M5.49968 20.584C5.51364 20.584 5.52761 20.584 5.54159 20.584C5.55558 20.584 5.56955 20.584 5.58351 20.584C5.91608 20.5839 6.24007 20.5839 6.5157 20.6027C6.81712 20.6233 7.17452 20.6715 7.54509 20.825C8.32101 21.1464 8.93748 21.7629 9.25888 22.5388C9.41237 22.9094 9.46062 23.2668 9.48119 23.5682C9.49999 23.8438 9.49996 24.1678 9.49993 24.5004C9.49993 24.5143 9.49992 24.5283 9.49992 24.5423L9.49993 32.5009C9.49996 32.8335 9.49999 33.1574 9.48119 33.4331C9.46062 33.7345 9.41237 34.0919 9.25888 34.4625C8.93748 35.2384 8.32101 35.8549 7.54509 36.1763C7.17452 36.3297 6.81712 36.378 6.5157 36.3986C6.24007 36.4174 5.91608 36.4173 5.58352 36.4173H5.49966C5.1671 36.4173 4.84311 36.4174 4.56748 36.3986C4.26606 36.378 3.90866 36.3297 3.53809 36.1763C2.76217 35.8549 2.1457 35.2384 1.82431 34.4625C1.67081 34.0919 1.62256 33.7345 1.602 33.4331C1.58319 33.1574 1.58322 32.8335 1.58325 32.5009L1.58326 24.5423C1.58326 24.5283 1.58326 24.5143 1.58325 24.5004C1.58322 24.1678 1.58319 23.8438 1.602 23.5682C1.62256 23.2668 1.67081 22.9094 1.82431 22.5388C2.1457 21.7629 2.76217 21.1464 3.53809 20.825C3.90866 20.6715 4.26606 20.6233 4.56748 20.6027C4.84312 20.5839 5.16711 20.5839 5.49968 20.584Z" fill="#FFB12B"/>
</svg>
