<svg width="20" height="20" viewBox="0 0 20 20" fill="none" xmlns="http://www.w3.org/2000/svg">
<mask id="mask0_143_4958" style="mask-type:luminance" maskUnits="userSpaceOnUse" x="0" y="0" width="20" height="20">
<path d="M19.8079 8.14476H10.213V11.9894H15.7263C15.6377 12.5336 15.4387 13.0688 15.1472 13.5569C14.8133 14.1161 14.4006 14.5418 13.9775 14.866C12.7101 15.8372 11.2325 16.0358 10.2063 16.0358C7.61409 16.0358 5.39919 14.3604 4.54176 12.0838C4.50716 12.0012 4.48418 11.9159 4.4562 11.8315C4.26673 11.2521 4.1632 10.6384 4.1632 10.0006C4.1632 9.33685 4.27531 8.70145 4.47972 8.10134C5.28599 5.73451 7.55082 3.96672 10.2082 3.96672C10.7427 3.96672 11.2574 4.03034 11.7455 4.15724C12.861 4.44725 13.6501 5.01843 14.1336 5.47023L17.0511 2.61313C15.2764 0.985972 12.9629 2.46015e-09 10.2033 2.46015e-09C7.99721 -4.74827e-05 5.96042 0.687318 4.29133 1.84899C2.93776 2.79107 1.82764 4.0524 1.07844 5.5173C0.381576 6.87555 0 8.38075 0 9.99913C0 11.6176 0.382159 13.1384 1.07902 14.4841V14.4932C1.81508 15.9218 2.89146 17.1519 4.19967 18.0897C5.34254 18.9089 7.39181 20 10.2033 20C11.8202 20 13.2531 19.7085 14.5169 19.1622C15.4285 18.7681 16.2363 18.2541 16.9676 17.5935C17.9339 16.7206 18.6906 15.6409 19.2072 14.3987C19.7237 13.1565 20 11.7518 20 10.2289C20 9.51963 19.9288 8.79934 19.8079 8.14469V8.14476Z" fill="white"/>
</mask>
<g mask="url(#mask0_143_4958)">
<g filter="url(#filter0_f_143_4958)">
<path d="M-0.147095 10.0664C-0.136489 11.6593 0.317405 13.3028 1.00445 14.6295V14.6387C1.50087 15.6022 2.17934 16.3633 2.9521 17.1174L7.61939 15.4144C6.73637 14.9658 6.60163 14.691 5.96864 14.1895C5.32179 13.5372 4.83969 12.7884 4.53945 11.9104H4.52735L4.53945 11.9013C4.34193 11.3215 4.32245 10.706 4.31516 10.0664H-0.147095Z" fill="url(#paint0_radial_143_4958)"/>
</g>
<g filter="url(#filter1_f_143_4958)">
<path d="M10.2131 -0.0732422C9.75178 1.54742 9.92816 3.12275 10.2131 4.03935C10.7458 4.03975 11.259 4.10325 11.7456 4.22975C12.8611 4.51977 13.6501 5.09096 14.1336 5.54276L17.1257 2.61267C15.3532 0.98745 13.22 -0.0706816 10.2131 -0.0732422Z" fill="url(#paint1_radial_143_4958)"/>
</g>
<g filter="url(#filter2_f_143_4958)">
<path d="M10.2032 -0.0859375C7.9404 -0.0859864 5.85133 0.619025 4.1394 1.81052C3.50376 2.25292 2.92045 2.76397 2.40104 3.33227C2.26497 4.60882 3.41964 6.17783 5.70625 6.16485C6.81569 4.87431 8.45654 4.03933 10.2828 4.03933C10.2845 4.03933 10.2861 4.03947 10.2878 4.03947L10.2132 -0.0856455C10.2098 -0.0856476 10.2065 -0.0859375 10.2032 -0.0859375Z" fill="url(#paint2_radial_143_4958)"/>
</g>
<g filter="url(#filter3_f_143_4958)">
<path d="M17.6715 10.5286L15.6518 11.9161C15.5632 12.4602 15.364 12.9954 15.0726 13.4835C14.7387 14.0427 14.3259 14.4684 13.9028 14.7927C12.6381 15.7618 11.1644 15.9614 10.1385 15.9622C9.07813 17.7682 8.89223 18.6728 10.2131 20.1304C11.8475 20.1292 13.2965 19.8341 14.5746 19.2817C15.4985 18.8823 16.317 18.3614 17.0581 17.6919C18.0374 16.8073 18.8044 15.7131 19.3279 14.4542C19.8513 13.1954 20.1312 11.7719 20.1312 10.2285L17.6715 10.5286Z" fill="url(#paint3_radial_143_4958)"/>
</g>
<g filter="url(#filter4_f_143_4958)">
<path d="M10.064 7.99805V12.1349H19.7811C19.8665 11.5683 20.1492 10.8352 20.1492 10.2283C20.1492 9.51901 20.078 8.65269 19.9572 7.99805H10.064Z" fill="#3086FF"/>
</g>
<g filter="url(#filter5_f_143_4958)">
<path d="M2.44735 3.18652C1.8477 3.84262 1.33542 4.57698 0.92924 5.37117C0.232389 6.72943 -0.14917 8.38069 -0.14917 9.99907C-0.14917 10.0219 -0.147282 10.0442 -0.14713 10.067C0.161484 10.6587 4.11581 10.5454 4.31512 10.067C4.31487 10.0446 4.31236 10.0229 4.31236 10.0005C4.31236 9.33671 4.4245 8.84745 4.62891 8.24734C4.88107 7.50711 5.2759 6.82546 5.78078 6.23817C5.89523 6.09205 6.20052 5.77793 6.28958 5.58951C6.32351 5.51774 6.22799 5.47746 6.22264 5.4522C6.21667 5.42395 6.08859 5.44667 6.0599 5.42562C5.9688 5.3588 5.7884 5.3239 5.67885 5.29289C5.44471 5.22659 5.05666 5.08038 4.84113 4.92883C4.15984 4.44976 3.09663 3.87752 2.44735 3.18652Z" fill="url(#paint4_radial_143_4958)"/>
</g>
<g filter="url(#filter6_f_143_4958)">
<path d="M4.85582 5.45513C6.43566 6.41212 6.88999 4.97208 7.94036 4.52146L6.11321 0.732422C5.44108 1.01492 4.80605 1.36589 4.21684 1.77597C3.33691 2.3884 2.55986 3.13574 1.91797 3.98622L4.85582 5.45513Z" fill="url(#paint5_radial_143_4958)"/>
</g>
<g filter="url(#filter7_f_143_4958)">
<path d="M5.49878 15.1215C3.37805 15.8872 3.04604 15.9146 2.85083 17.2289C3.22387 17.5929 3.62468 17.9297 4.0506 18.235C5.19346 19.0542 7.39185 20.1453 10.2034 20.1453C10.2067 20.1453 10.2098 20.145 10.2131 20.145V15.8888C10.211 15.8888 10.2086 15.8889 10.2064 15.8889C9.15362 15.8889 8.31231 15.6124 7.4497 15.1315C7.23702 15.013 6.85116 15.3313 6.65502 15.189C6.38448 14.9927 5.73342 15.3581 5.49878 15.1215Z" fill="url(#paint6_radial_143_4958)"/>
</g>
<g opacity="0.5" filter="url(#filter8_f_143_4958)">
<path d="M8.97107 15.7549V20.0714C9.36445 20.1175 9.77384 20.1454 10.2033 20.1454C10.6338 20.1454 11.0504 20.1233 11.4551 20.0827V15.784C11.0015 15.8615 10.5743 15.8891 10.2064 15.8891C9.78257 15.8891 9.37042 15.8398 8.97107 15.7549Z" fill="url(#paint7_linear_143_4958)"/>
</g>
</g>
<defs>
<filter id="filter0_f_143_4958" x="-0.617174" y="9.59633" width="8.70664" height="7.99094" filterUnits="userSpaceOnUse" color-interpolation-filters="sRGB">
<feFlood flood-opacity="0" result="BackgroundImageFix"/>
<feBlend mode="normal" in="SourceGraphic" in2="BackgroundImageFix" result="shape"/>
<feGaussianBlur stdDeviation="0.23504" result="effect1_foregroundBlur_143_4958"/>
</filter>
<filter id="filter1_f_143_4958" x="9.45936" y="-0.543322" width="8.13645" height="6.55637" filterUnits="userSpaceOnUse" color-interpolation-filters="sRGB">
<feFlood flood-opacity="0" result="BackgroundImageFix"/>
<feBlend mode="normal" in="SourceGraphic" in2="BackgroundImageFix" result="shape"/>
<feGaussianBlur stdDeviation="0.23504" result="effect1_foregroundBlur_143_4958"/>
</filter>
<filter id="filter2_f_143_4958" x="1.92018" y="-0.556017" width="8.83762" height="7.19114" filterUnits="userSpaceOnUse" color-interpolation-filters="sRGB">
<feFlood flood-opacity="0" result="BackgroundImageFix"/>
<feBlend mode="normal" in="SourceGraphic" in2="BackgroundImageFix" result="shape"/>
<feGaussianBlur stdDeviation="0.23504" result="effect1_foregroundBlur_143_4958"/>
</filter>
<filter id="filter3_f_143_4958" x="8.81227" y="9.75844" width="11.789" height="10.8425" filterUnits="userSpaceOnUse" color-interpolation-filters="sRGB">
<feFlood flood-opacity="0" result="BackgroundImageFix"/>
<feBlend mode="normal" in="SourceGraphic" in2="BackgroundImageFix" result="shape"/>
<feGaussianBlur stdDeviation="0.23504" result="effect1_foregroundBlur_143_4958"/>
</filter>
<filter id="filter4_f_143_4958" x="9.59389" y="7.52797" width="11.0254" height="5.07688" filterUnits="userSpaceOnUse" color-interpolation-filters="sRGB">
<feFlood flood-opacity="0" result="BackgroundImageFix"/>
<feBlend mode="normal" in="SourceGraphic" in2="BackgroundImageFix" result="shape"/>
<feGaussianBlur stdDeviation="0.23504" result="effect1_foregroundBlur_143_4958"/>
</filter>
<filter id="filter5_f_143_4958" x="-0.619249" y="2.71644" width="7.3862" height="8.22336" filterUnits="userSpaceOnUse" color-interpolation-filters="sRGB">
<feFlood flood-opacity="0" result="BackgroundImageFix"/>
<feBlend mode="normal" in="SourceGraphic" in2="BackgroundImageFix" result="shape"/>
<feGaussianBlur stdDeviation="0.23504" result="effect1_foregroundBlur_143_4958"/>
</filter>
<filter id="filter6_f_143_4958" x="-1.38688" y="-2.57243" width="12.632" height="11.6536" filterUnits="userSpaceOnUse" color-interpolation-filters="sRGB">
<feFlood flood-opacity="0" result="BackgroundImageFix"/>
<feBlend mode="normal" in="SourceGraphic" in2="BackgroundImageFix" result="shape"/>
<feGaussianBlur stdDeviation="1.65243" result="effect1_foregroundBlur_143_4958"/>
</filter>
<filter id="filter7_f_143_4958" x="2.38075" y="14.6344" width="8.30246" height="5.98117" filterUnits="userSpaceOnUse" color-interpolation-filters="sRGB">
<feFlood flood-opacity="0" result="BackgroundImageFix"/>
<feBlend mode="normal" in="SourceGraphic" in2="BackgroundImageFix" result="shape"/>
<feGaussianBlur stdDeviation="0.23504" result="effect1_foregroundBlur_143_4958"/>
</filter>
<filter id="filter8_f_143_4958" x="8.50099" y="15.2848" width="3.42417" height="5.33078" filterUnits="userSpaceOnUse" color-interpolation-filters="sRGB">
<feFlood flood-opacity="0" result="BackgroundImageFix"/>
<feBlend mode="normal" in="SourceGraphic" in2="BackgroundImageFix" result="shape"/>
<feGaussianBlur stdDeviation="0.23504" result="effect1_foregroundBlur_143_4958"/>
</filter>
<radialGradient id="paint0_radial_143_4958" cx="0" cy="0" r="1" gradientUnits="userSpaceOnUse" gradientTransform="translate(7.52596 16.9673) rotate(-92.3894) scale(9.96859 14.9545)">
<stop offset="0.141612" stop-color="#1ABD4D"/>
<stop offset="0.247515" stop-color="#6EC30D"/>
<stop offset="0.311547" stop-color="#8AC502"/>
<stop offset="0.366013" stop-color="#A2C600"/>
<stop offset="0.445673" stop-color="#C8C903"/>
<stop offset="0.540305" stop-color="#EBCB03"/>
<stop offset="0.615636" stop-color="#F7CD07"/>
<stop offset="0.699345" stop-color="#FDCD04"/>
<stop offset="0.771242" stop-color="#FDCE05"/>
<stop offset="0.860566" stop-color="#FFCE0A"/>
</radialGradient>
<radialGradient id="paint1_radial_143_4958" cx="0" cy="0" r="1" gradientUnits="userSpaceOnUse" gradientTransform="translate(16.8458 5.33076) scale(7.05806 8.92438)">
<stop offset="0.408458" stop-color="#FB4E5A"/>
<stop offset="1" stop-color="#FF4540"/>
</radialGradient>
<radialGradient id="paint2_radial_143_4958" cx="0" cy="0" r="1" gradientUnits="userSpaceOnUse" gradientTransform="translate(12.9914 -1.37777) rotate(151.53) scale(11.2492 15.0924)">
<stop offset="0.231273" stop-color="#FF4541"/>
<stop offset="0.311547" stop-color="#FF4540"/>
<stop offset="0.457516" stop-color="#FF4640"/>
<stop offset="0.540305" stop-color="#FF473F"/>
<stop offset="0.699346" stop-color="#FF5138"/>
<stop offset="0.771242" stop-color="#FF5B33"/>
<stop offset="0.860566" stop-color="#FF6C29"/>
<stop offset="1" stop-color="#FF8C18"/>
</radialGradient>
<radialGradient id="paint3_radial_143_4958" cx="0" cy="0" r="1" gradientUnits="userSpaceOnUse" gradientTransform="translate(10.3601 18.836) rotate(-128.041) scale(29.1028 10.7996)">
<stop offset="0.131546" stop-color="#0CBA65"/>
<stop offset="0.209784" stop-color="#0BB86D"/>
<stop offset="0.297297" stop-color="#09B479"/>
<stop offset="0.396257" stop-color="#08AD93"/>
<stop offset="0.477124" stop-color="#0AA6A9"/>
<stop offset="0.568425" stop-color="#0D9CC6"/>
<stop offset="0.667385" stop-color="#1893DD"/>
<stop offset="0.768727" stop-color="#258BF1"/>
<stop offset="0.858506" stop-color="#3086FF"/>
</radialGradient>
<radialGradient id="paint4_radial_143_4958" cx="0" cy="0" r="1" gradientUnits="userSpaceOnUse" gradientTransform="translate(9.33674 1.8033) rotate(96.7579) scale(10.7851 15.2222)">
<stop offset="0.366013" stop-color="#FF4E3A"/>
<stop offset="0.457516" stop-color="#FF8A1B"/>
<stop offset="0.540305" stop-color="#FFA312"/>
<stop offset="0.615636" stop-color="#FFB60C"/>
<stop offset="0.771242" stop-color="#FFCD0A"/>
<stop offset="0.860566" stop-color="#FECF0A"/>
<stop offset="0.915033" stop-color="#FECF08"/>
<stop offset="1" stop-color="#FDCD01"/>
</radialGradient>
<radialGradient id="paint5_radial_143_4958" cx="0" cy="0" r="1" gradientUnits="userSpaceOnUse" gradientTransform="translate(7.55207 1.6923) rotate(132.723) scale(5.4071 15.28)">
<stop offset="0.315904" stop-color="#FF4C3C"/>
<stop offset="0.603818" stop-color="#FF692C"/>
<stop offset="0.726837" stop-color="#FF7825"/>
<stop offset="0.884534" stop-color="#FF8D1B"/>
<stop offset="1" stop-color="#FF9F13"/>
</radialGradient>
<radialGradient id="paint6_radial_143_4958" cx="0" cy="0" r="1" gradientUnits="userSpaceOnUse" gradientTransform="translate(12.9914 21.3764) rotate(-151.53) scale(11.2492 15.0924)">
<stop offset="0.231273" stop-color="#0FBC5F"/>
<stop offset="0.311547" stop-color="#0FBC5F"/>
<stop offset="0.366013" stop-color="#0FBC5E"/>
<stop offset="0.457516" stop-color="#0FBC5D"/>
<stop offset="0.540305" stop-color="#12BC58"/>
<stop offset="0.699346" stop-color="#28BF3C"/>
<stop offset="0.771242" stop-color="#38C02B"/>
<stop offset="0.860566" stop-color="#52C218"/>
<stop offset="0.915033" stop-color="#67C30F"/>
<stop offset="1" stop-color="#86C504"/>
</radialGradient>
<linearGradient id="paint7_linear_143_4958" x1="8.97107" y1="17.9502" x2="11.4551" y2="17.9502" gradientUnits="userSpaceOnUse">
<stop stop-color="#0FBC5C"/>
<stop offset="1" stop-color="#0CBA65"/>
</linearGradient>
</defs>
</svg>
