<svg width="22" height="22" viewBox="0 0 22 22" fill="none" xmlns="http://www.w3.org/2000/svg">
<path fill-rule="evenodd" clip-rule="evenodd" d="M11.0001 0.916016C5.43121 0.916016 0.916748 5.43048 0.916748 10.9993C0.916748 16.5682 5.43121 21.0827 11.0001 21.0827C16.569 21.0827 21.0834 16.5682 21.0834 10.9993C21.0834 5.43048 16.569 0.916016 11.0001 0.916016ZM11.0001 6.41602C10.4938 6.41602 10.0834 6.82642 10.0834 7.33268C10.0834 7.83894 10.4938 8.24935 11.0001 8.24935H11.0092C11.5155 8.24935 11.9259 7.83894 11.9259 7.33268C11.9259 6.82642 11.5155 6.41602 11.0092 6.41602H11.0001ZM11.9167 10.9993C11.9167 10.4931 11.5063 10.0827 11.0001 10.0827C10.4938 10.0827 10.0834 10.4931 10.0834 10.9993V14.666C10.0834 15.1723 10.4938 15.5827 11.0001 15.5827C11.5063 15.5827 11.9167 15.1723 11.9167 14.666V10.9993Z" fill="#8BD219"/>
</svg>
