<svg width="43" height="45" viewBox="0 0 43 45" fill="none" xmlns="http://www.w3.org/2000/svg">
<path d="M1.81256 30.3063L9.52761 34.7606C11.0968 35.6665 13.1032 35.1289 14.0092 33.5597C14.9151 31.9906 14.3775 29.9841 12.8083 29.0782L6.99837 25.7238L6.99837 17.3451C6.99837 16.1566 8.28492 15.4138 9.31417 16.0081L18.181 21.1273C19.7584 22.0381 21.7754 21.4976 22.6862 19.9202C23.5969 18.3427 23.0564 16.3257 21.479 15.415L13.1773 10.622C12.2219 10.0704 11.0449 10.0704 10.0896 10.622L1.81256 15.4007C0.85721 15.9523 0.268691 16.9716 0.268691 18.0748L0.268691 27.6322C0.268691 28.7354 0.857209 29.7547 1.81256 30.3063Z" fill="#608DFF"/>
<path d="M35.676 14.6957L27.9609 10.2414C26.3918 9.33545 24.3853 9.87307 23.4794 11.4422C22.5734 13.0114 23.1111 15.0178 24.6802 15.9238L30.4902 19.2781L30.4902 27.6568C30.4902 28.8453 29.2036 29.5881 28.1744 28.9939L19.3076 23.8746C17.7301 22.9639 15.7131 23.5044 14.8024 25.0818C13.8916 26.6592 14.4321 28.6762 16.0095 29.587L24.3112 34.38C25.2666 34.9315 26.4436 34.9315 27.399 34.38L35.676 29.6012C36.6313 29.0497 37.2198 28.0303 37.2198 26.9272L37.2198 17.3697C37.2198 16.2666 36.6313 15.2472 35.676 14.6957Z" fill="#608DFF"/>
</svg>
