<svg width="87" height="102" viewBox="0 0 87 102" fill="none" xmlns="http://www.w3.org/2000/svg">
<g clip-path="url(#clip0_46_7493)">
<path d="M44.6855 43.9826C47.3793 62.0691 60.4412 73.5396 68.8031 86.1336C68.8031 86.1336 72.2404 93.9008 74.0082 95.9674C74.0082 95.9674 77.4876 103.013 78.8766 101.737C79.4238 101.238 78.1891 98.7691 77.3894 97.2989C78.3154 98.8523 80.0972 101.474 81.2477 101.058C82.1456 100.725 79.1011 95.8287 78.5539 94.9688C79.2274 95.8703 83.5205 101.599 84.7692 100.877C85.8636 100.239 81.3178 94.8162 80.6584 94.0256C81.2898 94.6775 85.2883 98.8107 85.9337 98.2005C86.8737 97.3128 85.7653 96.3974 81.7808 92.0838C81.7808 92.0838 86.9719 91.9035 86.7474 90.9048C86.523 89.8923 83.0014 90.1559 80.8128 86.5358C79.522 84.3859 76.6879 82.2916 76.6879 82.2916C76.6879 82.2916 67.7508 56.216 60.5675 44.9397L44.6715 43.9688L44.6855 43.9826Z" fill="#FFCFC7"/>
<mask id="mask0_46_7493" style="mask-type:luminance" maskUnits="userSpaceOnUse" x="44" y="43" width="43" height="59">
<path d="M44.6855 43.9826C47.3793 62.0691 60.4412 73.5396 68.8031 86.1336C68.8031 86.1336 72.2404 93.9008 74.0082 95.9674C74.0082 95.9674 77.4876 103.013 78.8766 101.737C79.4238 101.238 78.1891 98.7691 77.3894 97.2989C78.3154 98.8523 80.0972 101.474 81.2477 101.058C82.1456 100.725 79.1011 95.8287 78.5539 94.9688C79.2274 95.8703 83.5205 101.599 84.7692 100.877C85.8636 100.239 81.3178 94.8162 80.6584 94.0256C81.2898 94.6775 85.2883 98.8107 85.9337 98.2005C86.8737 97.3128 85.7653 96.3974 81.7808 92.0838C81.7808 92.0838 86.9719 91.9035 86.7474 90.9048C86.523 89.8923 83.0014 90.1559 80.8128 86.5358C79.522 84.3859 76.6879 82.2916 76.6879 82.2916C76.6879 82.2916 67.7508 56.216 60.5675 44.9397L44.6715 43.9688L44.6855 43.9826Z" fill="white"/>
</mask>
<g mask="url(#mask0_46_7493)">
<path d="M69.2661 57.9637L43.1282 62.9708L41.9497 50.779L57.523 46.2852L58.449 47.8386L66.9371 46.9925L69.2661 57.9637Z" fill="#FFB5AB"/>
</g>
<path d="M38.6667 0H39.5085C45.3896 0 50.1572 4.71325 50.1572 10.5273V16.2002C50.1572 22.0142 45.3896 26.7275 39.5085 26.7275H38.6667C32.7855 26.7275 28.0179 22.0142 28.0179 16.2002V10.5273C28.0179 4.71325 32.7855 0 38.6667 0Z" fill="black"/>
<path d="M33.7561 15.2422H43.97V34.258H33.7561V15.2422Z" fill="#FFCFC7"/>
<path d="M37.432 25.9362C36.4078 25.0069 35.6642 23.8418 35.1311 22.5796C34.626 21.4145 34.1349 19.9721 34.3314 18.6821C34.4015 18.2106 34.2332 17.7529 33.7561 17.5725V15.2285H43.97V28.1831C41.6129 28.2524 39.1717 27.4896 37.446 25.9223L37.432 25.9362Z" fill="#020202"/>
<path d="M33.7562 12.5239V11.8442C33.7562 9.61115 34.6821 7.58613 36.1553 6.11591C37.6425 4.64569 39.6909 3.74414 41.9637 3.74414C46.4954 3.74414 50.1572 7.37808 50.1572 11.8442V18.6128C50.1572 19.5143 50.0169 20.3743 49.7363 21.1926C48.656 24.4104 45.5835 26.7267 41.9637 26.7267C37.9231 26.7267 34.5699 23.8279 33.8965 20.0137C33.7702 20.0137 33.686 12.51 33.7702 12.5239H33.7562Z" fill="#FFCFC7"/>
<path d="M50.1572 11.8586H50.031C47.6599 11.1928 45.1625 9.55613 44.2366 7.26758C44.2366 7.26758 43.3527 11.8586 32.3111 11.8586H31.7218C31.7218 11.8586 34.2192 2.4963 39.284 2.69048C44.3628 2.88466 50.1572 5.08999 50.1572 11.8586Z" fill="black"/>
<path d="M35.1732 19.043C35.1732 20.2497 36.1693 21.2345 37.3899 21.2345C38.6106 21.2345 39.6067 20.2497 39.6067 19.043C39.6067 17.8363 38.6106 16.8516 37.3899 16.8516C36.1693 16.8516 35.1732 17.8363 35.1732 19.043Z" fill="#FFB5AB"/>
<path d="M47.9545 19.043C47.9545 20.111 48.7262 20.9987 49.7363 21.1929C50.0169 20.3884 50.1572 19.5146 50.1572 18.6131V16.8516C48.9366 16.8516 47.9545 17.8225 47.9545 19.0292V19.043Z" fill="#FFB5AB"/>
<path d="M40.3362 15.4519C40.3362 15.0497 39.9995 14.7168 39.5926 14.7168C39.1857 14.7168 38.849 15.0497 38.849 15.4519" stroke="#020202" stroke-width="0.22" stroke-linecap="round" stroke-linejoin="round"/>
<path d="M48.6841 15.4519C48.6841 15.0497 48.3474 14.7168 47.9405 14.7168C47.5336 14.7168 47.1969 15.0497 47.1969 15.4519" stroke="#020202" stroke-width="0.22" stroke-linecap="round" stroke-linejoin="round"/>
<path d="M44.8539 18.4883C44.8539 18.4883 43.97 19.3205 43.0861 18.4883" stroke="black" stroke-width="0.3" stroke-linecap="round" stroke-linejoin="round"/>
<path d="M43.7876 14.8691C43.7876 14.8691 44.4611 15.5349 44.6715 16.2007C44.7838 16.5474 43.9139 16.908 43.9139 16.908" stroke="black" stroke-width="0.27" stroke-linecap="round" stroke-linejoin="round"/>
<path d="M29.9119 16.5744C29.9119 18.0862 31.1606 19.3206 32.6898 19.3206C34.2191 19.3206 35.4678 18.0862 35.4678 16.5744C35.4678 15.0626 34.2191 13.8281 32.6898 13.8281C31.1606 13.8281 29.9119 15.0626 29.9119 16.5744Z" fill="#FFCFC7"/>
<path d="M30.9081 17.0599C30.9081 17.0599 30.9923 15.0487 33.1108 15.0765" stroke="black" stroke-width="0.2" stroke-linecap="round" stroke-linejoin="round"/>
<path d="M31.6376 15.7422C31.6376 15.7422 32.0305 17.5453 33.4475 17.573" stroke="black" stroke-width="0.2" stroke-linecap="round" stroke-linejoin="round"/>
<path d="M43.97 30.043C43.97 30.043 40.2521 33.2053 33.7281 30.043C33.7281 30.043 25.0155 31.5132 19.642 35.1749C9.76492 41.9018 9.807 54.0519 21.4519 59.5583C21.4519 59.5583 17.0324 78.2135 16.2468 90.1417H60.4272C60.4272 90.1417 60.3851 67.3949 56.4146 56.396L67.793 55.1061C67.793 55.1061 64.8747 30.9723 43.9841 30.043H43.97Z" fill="#2791E0"/>
<path d="M13.8476 48.2537C13.8476 48.2537 10.761 53.3163 14.7034 56.3677C18.6599 59.433 24.4262 60.0848 24.4262 60.0848L32.9845 48.1289L13.8335 48.2399L13.8476 48.2537Z" fill="#FF7229"/>
<path d="M16.6957 28.0998C16.6957 28.0998 6.27139 32.9959 4.22301 43.3013C4.25108 43.3429 6.55199 44.189 9.1756 46.9214C9.37202 47.1295 14.7736 42.6356 14.9981 42.4553C14.9981 42.4553 15.1664 45.2431 13.8616 48.2252C13.8616 48.2252 20.9187 53.7316 33.0126 48.1142C33.0126 48.1142 35.2854 40.6244 28.8457 30.4716L16.6957 28.0859V28.0998Z" fill="#FF7229"/>
<mask id="mask1_46_7493" style="mask-type:luminance" maskUnits="userSpaceOnUse" x="4" y="28" width="30" height="23">
<path d="M16.6957 28.0998C16.6957 28.0998 6.27139 32.9959 4.22301 43.3013C4.25108 43.3429 6.55199 44.189 9.1756 46.9214C9.37202 47.1295 14.7736 42.6356 14.9981 42.4553C14.9981 42.4553 15.1664 45.2431 13.8616 48.2252C13.8616 48.2252 20.9187 53.7316 33.0126 48.1142C33.0126 48.1142 35.2854 40.6244 28.8457 30.4716L16.6957 28.0859V28.0998Z" fill="white"/>
</mask>
<g mask="url(#mask1_46_7493)">
<path d="M12.5849 46.6851C17.2709 44.4659 16.359 41.248 16.359 41.248L13.118 44.2301C13.118 44.2301 12.0097 46.9486 12.5849 46.6851Z" fill="black"/>
<path d="M17.1587 33.8008C17.1587 33.8008 20.0488 49.4323 29.028 43.4682C40.5607 35.8119 17.1587 33.8008 17.1587 33.8008Z" fill="black"/>
</g>
<path d="M28.2144 17.1849C29.5612 21.8729 26.8114 26.7552 22.0552 28.0867C17.3131 29.4182 12.3745 26.6997 11.0276 21.9978C9.68074 17.2958 12.4306 12.4275 17.1868 11.0959C21.9289 9.76442 26.8675 12.4829 28.2144 17.1849Z" fill="black"/>
<path d="M25.0155 26.4635C25.0155 26.4635 26.2782 28.7936 26.629 30.4441C26.9797 32.0808 20.554 32.9962 20.554 32.9962L17.5936 30.4303L15.3629 24.6465L25.0155 26.4496V26.4635Z" fill="#FFCFC7"/>
<mask id="mask2_46_7493" style="mask-type:luminance" maskUnits="userSpaceOnUse" x="15" y="24" width="12" height="9">
<path d="M25.0155 26.4635C25.0155 26.4635 26.2782 28.7936 26.629 30.4441C26.9797 32.0808 20.554 32.9962 20.554 32.9962L17.5936 30.4303L15.3629 24.6465L25.0155 26.4496V26.4635Z" fill="white"/>
</mask>
<g mask="url(#mask2_46_7493)">
<path d="M16.387 25.2993C16.387 25.2993 20.3014 31.7349 26.6429 27.3381L24.777 25.1328L16.387 25.2993Z" fill="#FF9C91"/>
</g>
<path d="M29.0281 18.6688L28.6633 17.5454C27.4848 13.9392 23.5705 11.9558 19.9086 13.1208L19.2913 13.315C16.0364 14.3553 14.0862 17.5454 14.5351 20.7909C13.0059 20.5274 11.5187 21.4983 11.182 23.024C10.8453 24.5775 11.8414 26.1032 13.4127 26.436C14.5772 26.6857 15.7277 26.2002 16.3731 25.3126C18.1268 27.4624 21.1012 28.4333 23.9072 27.5318L24.5245 27.3376C28.1723 26.1725 30.1786 22.3028 29.0001 18.6827L29.0281 18.6688Z" fill="#FFCFC7"/>
<mask id="mask3_46_7493" style="mask-type:luminance" maskUnits="userSpaceOnUse" x="11" y="12" width="19" height="16">
<path d="M29.0281 18.6688L28.6633 17.5454C27.4848 13.9392 23.5705 11.9558 19.9086 13.1208L19.2913 13.315C16.0364 14.3553 14.0862 17.5454 14.5351 20.7909C13.0059 20.5274 11.5187 21.4983 11.182 23.024C10.8453 24.5775 11.8414 26.1032 13.4127 26.436C14.5772 26.6857 15.7277 26.2002 16.3731 25.3126C18.1268 27.4624 21.1012 28.4333 23.9072 27.5318L24.5245 27.3376C28.1723 26.1725 30.1786 22.3028 29.0001 18.6827L29.0281 18.6688Z" fill="white"/>
</mask>
<g mask="url(#mask3_46_7493)">
<path d="M30.9502 20.3201C30.8099 21.2494 29.926 21.8874 28.986 21.7487C28.046 21.61 27.4006 20.7362 27.5409 19.8069C27.6812 18.8776 28.5651 18.2396 29.5051 18.3783C30.4451 18.517 31.0905 19.3908 30.9502 20.3201Z" fill="#FFB5AB"/>
</g>
<path d="M21.3538 22.3298C21.3117 23.2729 20.512 24.008 19.5579 23.9664C18.6039 23.9248 17.8603 23.1342 17.9024 22.1911C17.9445 21.2479 18.7442 20.5128 19.6982 20.5544C20.6523 20.596 21.3959 21.3866 21.3538 22.3298Z" fill="#FFB5AB"/>
<path d="M12.15 23.912C12.15 23.912 12.5709 21.9008 14.6614 22.2198" stroke="black" stroke-width="0.13" stroke-linecap="round" stroke-linejoin="round"/>
<path d="M12.9357 22.6211C12.9357 22.6211 13.1742 24.5906 14.7035 24.5213" stroke="black" stroke-width="0.13" stroke-linecap="round" stroke-linejoin="round"/>
<path d="M14.9841 42.4843C14.9841 42.4843 16.0083 41.7908 16.7939 40.709" stroke="black" stroke-width="0.17" stroke-linecap="round" stroke-linejoin="round"/>
<path d="M24.4403 19.1406C24.4403 19.1406 24.9594 19.5151 25.1699 19.9451C25.2821 20.167 24.735 20.486 24.735 20.486" stroke="black" stroke-width="0.18" stroke-linecap="round" stroke-linejoin="round"/>
<path d="M21.3536 19.8485C21.3536 20.0288 21.1993 20.1814 21.0169 20.1814C20.8345 20.1814 20.6802 20.0288 20.6802 19.8485C20.6802 19.6682 20.8345 19.5156 21.0169 19.5156C21.1993 19.5156 21.3536 19.6682 21.3536 19.8485Z" fill="black"/>
<path d="M26.8254 18.2255C26.8254 18.4058 26.6711 18.5583 26.4887 18.5583C26.3063 18.5583 26.152 18.4058 26.152 18.2255C26.152 18.0451 26.3063 17.8926 26.4887 17.8926C26.6711 17.8926 26.8254 18.0451 26.8254 18.2255Z" fill="black"/>
<path d="M14.535 20.7765C14.535 20.7765 17.4813 19.1675 17.3831 15.7139C17.3831 15.7139 24.0474 17.8915 28.1021 16.2687C28.1021 16.2687 24.805 9.20887 17.9022 13.1896C11.4625 16.9067 14.535 20.7626 14.535 20.7626V20.7765Z" fill="black"/>
<path d="M25.8433 21.8315C25.8433 22.414 25.4504 22.8856 24.9453 22.8856C24.4403 22.8856 24.0474 22.414 24.0474 21.8315C24.0474 21.2489 24.4403 20.7773 24.9453 20.7773C25.4504 20.7773 25.8433 21.2489 25.8433 21.8315Z" fill="#FFC000"/>
<path d="M26.657 21.8324C26.657 22.304 26.2782 22.6785 25.8012 22.6785C25.3241 22.6785 24.9453 22.304 24.9453 21.8324C24.9453 21.3608 25.3241 20.9863 25.8012 20.9863C26.2782 20.9863 26.657 21.3608 26.657 21.8324Z" fill="#FF7229"/>
<path d="M31.4553 63.5391L26.1519 65.148L27.4146 69.2258C27.4146 69.2258 27.1901 70.1134 27.583 71.1676C27.7373 71.5698 28.1582 71.8056 28.5931 71.7362L34.5699 70.696L35.0329 70.6405C35.566 70.585 35.9168 70.058 35.7625 69.5448C35.6923 69.3229 35.538 69.1425 35.3416 69.0454L32.9985 67.8249L31.4412 63.5391H31.4553Z" fill="#FFCFC7"/>
<path d="M24.4403 60.0848L26.152 67.7966L33.1108 65.4942L32.9986 48.1289L24.4403 60.0848Z" fill="#FF7229"/>
<path d="M40.7151 51.125L38.9193 56.3124L43.002 57.6855C43.002 57.6855 43.6053 58.379 44.6856 58.6842C45.1065 58.7951 45.5414 58.5871 45.7378 58.1987L48.3895 52.8033L48.614 52.401C48.8806 51.9433 48.6561 51.3469 48.137 51.1805C47.9265 51.1111 47.688 51.125 47.4776 51.2221L45.1065 52.3872L40.687 51.125H40.7151Z" fill="#FFCFC7"/>
<path d="M33.7703 54.7311L41.0939 57.8796L43.2826 50.9585L28.986 40.875L33.7703 54.7311Z" fill="#FF7229"/>
<path d="M6.59418 49.8896C9.94735 55.8398 16.4012 60.2227 29.1404 59.3073C31.8201 59.1131 34.1912 58.0174 36.6605 57.1297C37.0393 56.991 37.4602 57.0326 37.853 56.9633C38.302 56.8801 38.7088 56.6859 39.1157 56.4778C39.5366 56.2698 39.9575 56.0617 40.3924 55.8537C40.5748 55.7705 40.7572 55.6734 40.8554 55.4931C40.9536 55.3266 40.8835 55.0492 40.7011 55.0076C41.1922 54.7996 41.7393 54.4944 41.7954 53.9674C41.7954 53.8841 41.7954 53.8009 41.8375 53.7316C41.8656 53.6761 41.9217 53.6484 41.9778 53.6067C42.5671 53.26 43.1704 52.8023 43.3107 52.1365C43.3247 52.0533 43.3387 51.9701 43.3949 51.9007C43.6193 51.5956 43.8999 51.5817 43.8158 51.1101C43.2967 48.2529 32.8022 51.6927 33.8264 50.2363C34.8506 48.7661 35.3697 45.1599 34.0509 45.0073C33.0407 44.8825 31.6658 48.1974 30.8661 48.6968C30.0664 49.1961 28.5231 51.5401 28.5231 51.5401L15.3489 45.8812L6.59418 49.8896Z" fill="#FFCFC7"/>
<path d="M34.0649 45.0215C34.0649 45.0215 36.1273 46.1033 33.8404 50.2505" stroke="#020202" stroke-width="0.19" stroke-linecap="round" stroke-linejoin="round"/>
<path d="M43.1703 50.3203C43.1703 50.3203 44.1384 50.9167 43.8017 51.5825C43.465 52.2482 35.9168 53.6075 35.9168 53.6075" stroke="#020202" stroke-width="0.19" stroke-linecap="round" stroke-linejoin="round"/>
<path d="M43.3527 51.873C43.3527 51.873 43.5912 53.1075 42.09 53.7039C40.5888 54.3003 35.9028 55.2989 35.9028 55.2989" stroke="#020202" stroke-width="0.19" stroke-linecap="round" stroke-linejoin="round"/>
<path d="M41.7532 53.9805C41.7532 53.9805 41.9777 54.6601 40.8974 55.0069C39.8171 55.3397 35.8045 56.2413 35.8045 56.2413" stroke="#020202" stroke-width="0.19" stroke-linecap="round" stroke-linejoin="round"/>
<path d="M40.8974 55.0078C40.8974 55.0078 41.164 55.6874 40.3222 56.0342C39.4804 56.3809 35.8186 57.4489 35.8186 57.4489" stroke="#020202" stroke-width="0.19" stroke-linecap="round" stroke-linejoin="round"/>
<path d="M27.2042 50.3196L24.9735 61.5127C24.9735 61.5127 -4.65789 53.2046 4.20906 43.3153C10.6629 36.1168 27.2042 50.3196 27.2042 50.3196Z" fill="#2791E0"/>
<path d="M16.6957 28.1016C16.6957 28.1016 6.27139 32.9977 4.22301 43.3031C4.25107 43.3447 6.55199 44.1908 9.1756 46.9232C9.37202 47.1312 14.7736 42.6373 14.9981 42.457" fill="#FF7229"/>
<mask id="mask4_46_7493" style="mask-type:luminance" maskUnits="userSpaceOnUse" x="4" y="28" width="13" height="19">
<path d="M16.6957 28.1016C16.6957 28.1016 6.27139 32.9977 4.22301 43.3031C4.25107 43.3447 6.55199 44.1908 9.1756 46.9232C9.37202 47.1312 14.7736 42.6373 14.9981 42.457" fill="white"/>
</mask>
<g mask="url(#mask4_46_7493)">
<path d="M12.5849 46.687C17.2709 44.4678 16.359 41.25 16.359 41.25L13.118 44.2321C13.118 44.2321 12.0097 46.9506 12.5849 46.687Z" fill="black"/>
</g>
<path d="M27.0919 28.5038C27.4287 28.587 27.7233 28.7812 27.9057 29.0725C29.6594 31.791 37.3619 42.6789 26.8955 43.9272C24.2018 44.2462 19.9507 43.5666 17.8462 35.7855C17.1026 33.0393 15.2366 29.8908 14.8157 29.1279C14.7175 28.9476 14.7736 28.7118 14.9279 28.5731C15.4751 28.1016 16.6957 28.1016 16.6957 28.1016C17.3411 28.8228 21.1573 33.2612 24.791 31.4442C26.7552 30.4733 25.8994 28.2957 25.8994 28.2957L27.106 28.4899L27.0919 28.5038Z" fill="#FFC000"/>
<mask id="mask5_46_7493" style="mask-type:luminance" maskUnits="userSpaceOnUse" x="14" y="28" width="19" height="16">
<path d="M27.0919 28.5038C27.4287 28.587 27.7233 28.7812 27.9057 29.0725C29.6594 31.791 37.3619 42.6789 26.8955 43.9272C24.2018 44.2462 19.9507 43.5666 17.8462 35.7855C17.1026 33.0393 15.2366 29.8908 14.8157 29.1279C14.7175 28.9476 14.7736 28.7118 14.9279 28.5731C15.4751 28.1016 16.6957 28.1016 16.6957 28.1016C17.3411 28.8228 21.1573 33.2612 24.791 31.4442C26.7552 30.4733 25.8994 28.2957 25.8994 28.2957L27.106 28.4899L27.0919 28.5038Z" fill="white"/>
</mask>
<g mask="url(#mask5_46_7493)">
<path d="M28.986 40.7919C28.986 42.2622 30.1926 43.455 31.6798 43.455C33.167 43.455 34.3735 42.2622 34.3735 40.7919C34.3735 39.3217 33.167 38.1289 31.6798 38.1289C30.1926 38.1289 28.986 39.3217 28.986 40.7919Z" stroke="#FFEEE6" stroke-width="0.23" stroke-miterlimit="10"/>
<path d="M28.2846 33.8016C28.2846 34.9667 29.2386 35.9098 30.4171 35.9098C31.5956 35.9098 32.5497 34.9667 32.5497 33.8016C32.5497 32.6365 31.5956 31.6934 30.4171 31.6934C29.2386 31.6934 28.2846 32.6365 28.2846 33.8016Z" stroke="#FFEEE6" stroke-width="0.23" stroke-miterlimit="10"/>
<path d="M24.0615 37.0752C24.0615 37.6439 24.5245 38.1016 25.0997 38.1016C25.675 38.1016 26.1379 37.6439 26.1379 37.0752C26.1379 36.5065 25.675 36.0488 25.0997 36.0488C24.5245 36.0488 24.0615 36.5065 24.0615 37.0752Z" stroke="#FFEEE6" stroke-width="0.23" stroke-miterlimit="10"/>
<path d="M19.9648 32.068C19.9648 33.1915 20.8767 34.093 22.0131 34.093C23.1496 34.093 24.0615 33.1915 24.0615 32.068C24.0615 30.9445 23.1496 30.043 22.0131 30.043C20.8767 30.043 19.9648 30.9445 19.9648 32.068Z" stroke="#FFEEE6" stroke-width="0.23" stroke-miterlimit="10"/>
<path d="M13.8196 34.4682C13.8196 35.5778 14.7316 36.4793 15.854 36.4793C16.9764 36.4793 17.8883 35.5778 17.8883 34.4682C17.8883 33.3586 16.9764 32.457 15.854 32.457C14.7316 32.457 13.8196 33.3586 13.8196 34.4682Z" stroke="#FFEEE6" stroke-width="0.23" stroke-miterlimit="10"/>
<path d="M17.9023 39.7247C17.9023 40.5569 18.5897 41.2366 19.4315 41.2366C20.2733 41.2366 20.9608 40.5569 20.9608 39.7247C20.9608 38.8925 20.2733 38.2129 19.4315 38.2129C18.5897 38.2129 17.9023 38.8925 17.9023 39.7247Z" stroke="#FFEEE6" stroke-width="0.23" stroke-miterlimit="10"/>
<path d="M24.7069 45.2033C23.901 45.2033 23.2478 44.5575 23.2478 43.7608C23.2478 42.9642 23.901 42.3184 24.7069 42.3184C25.5127 42.3184 26.166 42.9642 26.166 43.7608C26.166 44.5575 25.5127 45.2033 24.7069 45.2033Z" stroke="#FFEEE6" stroke-width="0.23" stroke-miterlimit="10"/>
<path d="M13.8196 29.8212C13.8196 30.7644 14.5913 31.5273 15.5453 31.5273C16.4993 31.5273 17.271 30.7644 17.271 29.8212C17.271 28.8781 16.4993 28.1152 15.5453 28.1152C14.5913 28.1152 13.8196 28.8781 13.8196 29.8212Z" stroke="#FFEEE6" stroke-width="0.23" stroke-miterlimit="10"/>
</g>
<path d="M0.434975 49.1272C-0.0280151 48.836 0.0561662 48.5308 0.392886 48.2534H0.364826C0.140346 47.6431 0.827818 47.019 0.827818 47.019C0.827818 47.019 0.827818 46.9912 0.827818 46.9774C1.06633 46.8664 1.27677 46.7277 1.48722 46.5752C1.68364 46.4365 1.83797 46.3255 2.03439 46.2561C2.42723 46.1036 2.86217 46.062 3.25501 45.8678C3.718 45.6459 4.01262 45.313 4.26516 44.883C4.36337 44.7304 4.44755 44.564 4.54576 44.4114C4.54576 44.4114 4.60188 44.3421 4.60188 44.3282C4.62994 44.3005 4.65801 44.2589 4.68607 44.2311C4.68607 44.2172 4.71412 44.2034 4.72815 44.1895C4.75621 44.1618 4.7983 44.1479 4.82636 44.1202C4.91054 44.0647 4.9807 43.9953 5.00876 43.9121L7.91296 45.8539C6.98698 48.406 5.83652 49.1827 4.7983 49.9594C3.54963 50.8749 2.63769 50.75 2.74993 50.2784C2.79202 50.112 2.90425 49.9456 3.05858 49.7791L2.82007 49.6404C1.92215 49.8346 0.140347 50.1259 0.168406 49.5295C0.168406 49.3908 0.280644 49.2382 0.434975 49.1134V49.1272Z" fill="#FFCFC7"/>
<path d="M3.01648 46.9492C3.01648 46.9492 -1.05222 48.1559 0.43496 49.1268" stroke="black" stroke-width="0.14" stroke-linecap="round" stroke-linejoin="round"/>
<path d="M2.98847 48.0879C2.98847 48.0879 0.210536 48.7537 0.168446 49.5581C0.126356 50.3487 3.3252 49.5581 3.3252 49.5581" stroke="black" stroke-width="0.14" stroke-linecap="round" stroke-linejoin="round"/>
<path d="M3.83024 49.1405C3.59173 49.3624 2.84814 49.8201 2.74993 50.2917C2.65172 50.7633 3.56366 50.8881 4.7983 49.9727C5.83652 49.2099 7.00101 48.4193 7.91296 45.8672" stroke="black" stroke-width="0.14" stroke-linecap="round" stroke-linejoin="round"/>
<path d="M3.07263 45.9922C3.07263 45.9922 -0.196356 46.7966 0.322754 48.1975" stroke="black" stroke-width="0.14" stroke-linecap="round" stroke-linejoin="round"/>
<path d="M3.4374 43.1083L3.83025 42.5674C4.0407 42.2761 4.44757 42.2207 4.72817 42.4426L9.63866 46.3401C9.96135 46.5897 9.94732 47.0752 9.62463 47.3248L8.81089 47.9351C8.57238 48.1154 8.23566 48.1015 8.01118 47.9074L3.52158 43.9405C3.28308 43.7325 3.24098 43.3719 3.4374 43.1083Z" fill="#FFDEC2"/>
<path d="M23.5564 11.915L23.8791 8.53076C23.9071 8.19788 24.2719 8.01757 24.5666 8.18401L26.5588 9.33522C26.8254 9.48779 26.8675 9.84841 26.643 10.0565L24.3281 12.2895C24.1737 12.4421 23.9352 12.456 23.7528 12.345C23.6125 12.2479 23.5424 12.0954 23.5564 11.9289V11.915Z" fill="black"/>
<path d="M11.3503 16.2288L7.91296 16.1733C7.57624 16.1733 7.36578 15.8266 7.50608 15.5214L8.50221 13.4687C8.62848 13.1913 8.99327 13.1219 9.21775 13.33L11.6449 15.4382C11.8133 15.5769 11.8554 15.8127 11.7431 16.0069C11.659 16.1456 11.5046 16.2427 11.3363 16.2427L11.3503 16.2288Z" fill="black"/>
<path d="M13.1602 15.3812C13.0058 15.0899 12.6691 14.9512 12.3604 15.0206C12.2061 14.7432 11.8975 14.5906 11.5607 14.6461C11.238 14.7015 10.9995 14.9789 10.9715 15.2841C10.6628 15.3396 10.4103 15.5892 10.3682 15.9082C10.3261 16.2411 10.5085 16.5324 10.7891 16.6711C10.747 16.9762 10.9154 17.2952 11.21 17.4339C11.5046 17.5726 11.8554 17.4894 12.0658 17.2675C12.3464 17.4062 12.6972 17.3507 12.9216 17.1011C13.1461 16.8653 13.1742 16.5185 13.0199 16.2411C13.2303 16.0192 13.2864 15.6724 13.1321 15.3812H13.1602Z" fill="#FF887C"/>
<path d="M12.3043 16.0198C12.3464 16.2694 12.192 16.5052 11.9395 16.5468C11.6869 16.5884 11.4484 16.4359 11.4063 16.1862C11.3643 15.9366 11.5186 15.7008 11.7711 15.6592C12.0237 15.6175 12.2622 15.7701 12.3043 16.0198Z" fill="#FFB6D6"/>
<path d="M24.9033 11.1644C24.749 10.8731 24.4123 10.7344 24.1036 10.8038C23.9493 10.5264 23.6406 10.3738 23.3039 10.4293C22.9812 10.4848 22.7427 10.7622 22.7146 11.0673C22.406 11.1228 22.1534 11.3724 22.1114 11.6914C22.0693 12.0243 22.2517 12.3156 22.5323 12.4543C22.4902 12.7594 22.6585 13.0784 22.9531 13.2171C23.2478 13.3558 23.5985 13.2726 23.809 13.0507C24.0896 13.1894 24.4403 13.1339 24.6648 12.8843C24.8893 12.6485 24.9173 12.3017 24.763 12.0243C24.9735 11.8024 25.0296 11.4557 24.8753 11.1644H24.9033Z" fill="#FF887C"/>
<path d="M24.0474 11.803C24.0895 12.0526 23.9352 12.2884 23.6826 12.33C23.4301 12.3716 23.1916 12.2191 23.1495 11.9694C23.1074 11.7198 23.2617 11.484 23.5143 11.4424C23.7668 11.4007 24.0053 11.5533 24.0474 11.803Z" fill="#FFB6D6"/>
</g>
<defs>
<clipPath id="clip0_46_7493">
<rect width="87" height="102" fill="white" transform="matrix(-1 0 0 1 87 0)"/>
</clipPath>
</defs>
</svg>
