<svg width="37" height="23" viewBox="0 0 37 23" fill="none" xmlns="http://www.w3.org/2000/svg">
<path d="M33.4755 0.439453L33.9021 0.728906C31.7083 2.08477 30.4591 4.0957 30.1696 6.76172C34.3743 8.01094 36.4614 10.5094 36.4614 14.2875C36.4614 16.6184 35.6845 18.5836 34.1458 20.168C32.6071 21.7676 30.7181 22.5598 28.4786 22.5598C26.2087 22.5598 24.3501 21.7523 22.8876 20.1527C21.4251 18.5531 20.6938 16.4965 20.6938 13.998C20.6938 10.8445 21.9126 7.96524 24.3349 5.31445C26.7876 2.67891 29.8345 1.04883 33.4755 0.439453ZM13.2899 0.439453L13.7165 0.728906C11.5075 2.06953 10.2735 4.08047 9.98408 6.76172C14.1735 8.01094 16.2759 10.5094 16.2759 14.2875C16.2759 16.6184 15.4989 18.5836 13.9603 20.168C12.4216 21.7676 10.5325 22.5598 8.29307 22.5598C6.02314 22.5598 4.16455 21.7523 2.70205 20.1527C1.23955 18.5531 0.508301 16.4965 0.508301 13.998C0.508301 10.8445 1.72705 7.96524 4.14932 5.31445C6.60205 2.67891 9.63369 1.04883 13.2899 0.439453Z" fill="#837E76"/>
</svg>
