<svg width="22" height="22" viewBox="0 0 22 22" fill="none" xmlns="http://www.w3.org/2000/svg">
<path d="M11.2622 0.99785C11.0883 0.972722 10.9117 0.972722 10.7378 0.99785C10.5374 1.02681 10.3509 1.09726 10.2028 1.1532L10.1632 1.16815L5.12842 3.05605C4.56211 3.26748 4.06478 3.45316 3.68178 3.79069C3.34672 4.08597 3.08863 4.4584 2.92979 4.8758C2.74823 5.35294 2.749 5.8838 2.74988 6.48829L2.75 11C2.75 13.5911 4.15918 15.7513 5.68247 17.3382C7.21596 18.9358 8.97049 20.0642 9.89826 20.6054L9.93581 20.6274C10.1051 20.7268 10.3249 20.8559 10.6156 20.9182C10.8534 20.9692 11.1466 20.9692 11.3844 20.9182C11.6751 20.8559 11.8949 20.7269 12.0642 20.6274L12.1017 20.6054C13.0295 20.0642 14.784 18.9358 16.3175 17.3382C17.8408 15.7513 19.25 13.5911 19.25 11L19.2501 6.48828C19.251 5.8838 19.2518 5.35294 19.0702 4.8758C18.9114 4.4584 18.6533 4.08597 18.3182 3.79069C17.9352 3.45315 17.4379 3.26748 16.8716 3.05605L11.8368 1.16815L11.7972 1.1532C11.6491 1.09726 11.4626 1.02681 11.2622 0.99785Z" fill="#608DFF"/>
</svg>
