<svg width="38" height="38" viewBox="0 0 38 38" fill="none" xmlns="http://www.w3.org/2000/svg">
<path fill-rule="evenodd" clip-rule="evenodd" d="M18.5472 1.72396C18.8475 1.68056 19.1526 1.68056 19.4529 1.72396C19.7991 1.77398 20.1212 1.89567 20.377 1.99229L20.4455 2.01812L29.1419 5.27903C30.12 5.64422 30.9791 5.96494 31.6406 6.54796C32.2193 7.05798 32.6652 7.70128 32.9395 8.42224C33.2531 9.24638 33.2518 10.1633 33.2503 11.2074L33.2501 19.0004C33.2501 23.4759 30.816 27.2071 28.1849 29.9482C25.5361 32.7077 22.5056 34.6567 20.9031 35.5916L20.8382 35.6296C20.5457 35.8013 20.1662 36.0242 19.664 36.1319C19.2532 36.22 18.7469 36.22 18.3361 36.1319C17.834 36.0242 17.4544 35.8013 17.162 35.6296L17.097 35.5916C15.4945 34.6567 12.464 32.7077 9.81523 29.9482C7.1841 27.2071 4.75005 23.4759 4.75005 19.0004L4.74984 11.2074C4.74833 10.1633 4.747 9.24639 5.06061 8.42224C5.33496 7.70128 5.78076 7.05798 6.35949 6.54796C7.02104 5.96494 7.88007 5.64422 8.85824 5.27903L17.5546 2.01812L17.6231 1.99229C17.8789 1.89567 18.201 1.77398 18.5472 1.72396ZM25.6613 15.3702C26.2796 14.7519 26.2796 13.7494 25.6613 13.131C25.0429 12.5127 24.0404 12.5127 23.4221 13.131L17.4167 19.1364L15.3696 17.0894C14.7513 16.471 13.7488 16.471 13.1304 17.0894C12.5121 17.7077 12.5121 18.7102 13.1304 19.3285L16.2971 22.4952C16.9154 23.1135 17.9179 23.1135 18.5363 22.4952L25.6613 15.3702Z" fill="#28CFE4"/>
</svg>
