<svg width="54" height="54" viewBox="0 0 54 54" fill="none" xmlns="http://www.w3.org/2000/svg">
<path d="M18 6.75C18 5.50736 19.0074 4.5 20.25 4.5H33.75C34.9926 4.5 36 5.50736 36 6.75C36 7.99264 34.9926 9 33.75 9H20.25C19.0074 9 18 7.99264 18 6.75Z" fill="#FF8484"/>
<path fill-rule="evenodd" clip-rule="evenodd" d="M4.5 13.5C4.5 12.2574 5.50736 11.25 6.75 11.25H47.25C48.4926 11.25 49.5 12.2574 49.5 13.5C49.5 14.7426 48.4926 15.75 47.25 15.75H44.8551L43.4112 37.4073C43.298 39.1071 43.2042 40.5137 43.0361 41.6586C42.8611 42.8506 42.5835 43.9399 42.0051 44.9551C41.1048 46.5354 39.7468 47.8059 38.1101 48.5991C37.0586 49.1087 35.9533 49.3132 34.7522 49.4086C33.5987 49.5001 32.189 49.5001 30.4855 49.5001H23.5147C21.8112 49.5001 20.4015 49.5001 19.2479 49.4086C18.0469 49.3132 16.9415 49.1087 15.8901 48.5991C14.2533 47.8059 12.8953 46.5354 11.995 44.9551C11.4167 43.9399 11.139 42.8506 10.964 41.6586C10.7959 40.5136 10.7022 39.107 10.5889 37.4073L9.14507 15.75H6.75C5.50736 15.75 4.5 14.7426 4.5 13.5ZM22.5 21.375C23.7426 21.375 24.75 22.3824 24.75 23.625V34.875C24.75 36.1176 23.7426 37.125 22.5 37.125C21.2574 37.125 20.25 36.1176 20.25 34.875V23.625C20.25 22.3824 21.2574 21.375 22.5 21.375ZM33.75 23.625C33.75 22.3824 32.7426 21.375 31.5 21.375C30.2574 21.375 29.25 22.3824 29.25 23.625V34.875C29.25 36.1176 30.2574 37.125 31.5 37.125C32.7426 37.125 33.75 36.1176 33.75 34.875V23.625Z" fill="#FF8484"/>
</svg>
