<svg width="226" height="134" viewBox="0 0 226 134" fill="none" xmlns="http://www.w3.org/2000/svg">
<path d="M214.295 84.2116C224.259 76.3366 224.266 59.9256 212.192 53.5086C206.251 50.3516 198.966 50.3586 193.273 54.0476C187.504 57.7876 184.237 64.0186 181.542 70.2016C177.878 62.4416 169.997 56.9466 161.14 57.2776C160.288 57.3096 159.454 57.4146 158.631 57.5526C154.61 31.5826 131.331 9.22563 106.66 2.54763C78.7228 -5.01437 48.0128 4.55964 29.9438 27.2596C21.0328 38.4546 15.6208 51.9456 14.3088 66.1386C14.1728 66.1316 14.0418 66.1936 13.9678 66.3616C13.4258 67.5886 13.6328 68.9106 14.1468 70.1036C11.0518 70.1136 8.05383 70.8746 5.41783 73.0216C1.24683 76.4186 -0.779168 82.1406 0.275832 87.3976C2.65883 99.2656 14.7628 102.734 24.8238 99.6036C21.4088 105.947 24.1438 114.802 31.5748 117.875C42.8578 122.541 52.9598 113.942 56.0988 103.518C57.8128 104.131 59.5278 104.745 61.2418 105.359C61.9738 105.621 62.4838 105.137 62.6098 104.545C72.3938 105.386 78.1808 92.3546 69.6828 85.7056C78.3868 80.7236 80.0388 68.5076 71.4708 61.9336C66.0948 57.8096 61.2408 58.3576 57.1948 61.0896C62.9018 46.7356 78.7178 30.1046 94.9158 35.2266C103.046 37.7976 109.148 44.4226 112.803 51.9196C114.68 55.7706 115.964 59.8806 117.001 64.0276C117.461 65.8656 117.853 67.7196 118.225 69.5776C118.316 70.0336 119.349 74.3136 120.099 76.6106C119.979 76.5936 119.857 76.5946 119.735 76.6426C119.625 76.6866 119.516 76.7296 119.406 76.7736C119.011 76.9306 118.588 77.2986 118.638 77.7816L118.691 78.2876C118.751 78.8606 119.028 79.2346 119.565 79.4366C119.607 79.4526 119.649 79.4676 119.691 79.4836C119.59 79.6176 119.476 79.7326 119.379 79.8726C115.254 85.8036 116.443 94.9176 122.593 98.7556C113.45 106.961 109.413 121.987 120.605 130.561C132.126 139.387 143.658 128.07 150.415 118.743C154.404 127.457 163.943 134.305 173.789 131.163C181.579 128.677 186.381 120.423 184.951 112.681C196.653 119.778 212.958 122.087 222.124 109.658C228.73 100.701 224.775 87.1066 214.295 84.2116ZM15.3148 68.7816C18.7198 33.1666 47.4048 4.16863 83.5088 2.47863C100.969 1.66163 118.195 7.19263 131.692 18.3386C144.554 28.9596 151.551 42.4756 156.417 58.0536C153.064 59.0176 150.038 60.8346 147.549 63.2286C146.093 49.1786 137.959 33.9036 128.026 24.1916C117.403 13.8046 103.903 9.42563 89.1818 10.1166C62.0188 11.3916 31.7658 27.1136 29.0808 56.7916C25.0878 59.8976 23.7448 66.4946 23.3788 71.6756C20.7108 70.9166 17.9138 70.2576 15.1698 70.1276C15.0878 69.8416 15.0288 69.5556 14.9878 69.2686C15.1548 69.1776 15.2918 69.0206 15.3148 68.7816ZM92.9628 21.7536C70.9568 21.6426 47.3178 34.9296 39.7108 56.1866C38.5228 55.6616 37.2488 55.2906 35.8908 55.1176C33.7468 54.8446 31.9628 55.1686 30.4738 55.9116C35.2848 27.8606 63.4398 13.1236 90.1718 12.3666C104.57 11.9576 117.455 16.7086 127.503 27.1446C132.045 31.8626 135.698 37.4166 138.523 43.3146C141.833 50.2256 143.196 57.4776 145.774 64.5936C145.82 64.7196 145.891 64.8256 145.975 64.9166C143.543 67.7826 141.794 71.2526 141.021 74.9946C141.009 75.0546 141.024 75.1026 141.02 75.1596C138.901 74.3656 136.619 73.8526 134.327 73.6716C136.314 50.1056 118.261 21.8806 92.9628 21.7536ZM67.4348 62.2546C77.7198 66.5116 77.0328 80.4676 67.1718 84.6866C66.4438 84.9986 66.5648 86.1076 67.1718 86.4546C77.2568 92.2296 69.7988 106.566 59.1658 102.14C59.1108 102.117 59.0598 102.119 59.0068 102.113C57.8798 101.709 56.7518 101.305 55.6248 100.902C55.0478 100.696 54.3458 101.137 54.2048 101.708C52.1038 110.227 45.0098 118.476 35.3278 116.592C26.2918 114.834 21.7018 103.037 29.7828 97.4146C30.1338 97.2066 30.4788 96.9886 30.8168 96.7606C32.0418 95.9356 30.9628 94.0296 29.6488 94.7636C29.2828 94.9686 28.9388 95.1896 28.6058 95.4186C19.8468 100.612 7.05883 99.7976 3.10483 88.8146C1.29683 83.7926 2.73883 78.1476 6.96683 74.7886C12.0658 70.7376 18.4868 72.5846 24.1328 74.2716C24.8678 74.4916 25.5468 73.8936 25.5758 73.1726C25.7078 69.8336 25.8018 66.4326 27.1488 63.3266C29.3728 58.1986 34.6008 55.9296 39.8138 58.9246C45.2438 62.0446 47.9018 68.2356 47.4488 74.3096C47.3668 75.4146 49.1318 75.9316 49.5978 74.8916C51.1018 71.5376 53.0418 67.6926 55.6518 64.9556C55.7658 64.9046 55.8568 64.8076 55.9278 64.6786C58.8438 61.7606 62.5758 60.2436 67.4348 62.2546ZM115.672 52.4016C111.854 43.9156 105.279 36.3336 96.2608 33.2806C78.1148 27.1366 59.2178 46.2366 55.0058 62.8416C52.8898 64.8066 51.0498 67.3216 49.5418 69.9406C48.6708 64.5676 45.5568 59.3656 40.8428 56.7516C49.2528 37.2006 70.0438 24.7706 91.0768 24.0816C104.138 23.6526 115.018 30.7246 122.386 41.1556C129.304 50.9496 131.74 61.8226 132.077 73.5996C128.451 73.6826 124.934 74.7066 122.126 76.9486C122.409 74.0816 120.921 70.2926 120.435 67.9856C119.315 62.6676 117.908 57.3726 115.672 52.4016ZM216.305 112.078C206.013 119.78 192.964 115.632 183.45 108.814C182.364 108.036 181.361 109.493 181.802 110.462C185.392 118.357 179.562 127.854 171.243 129.278C162.4 130.792 154.554 123.904 151.842 115.97C151.503 114.978 150.259 114.828 149.676 115.687C144.132 123.853 134.056 136.323 122.948 129.368C111.077 121.934 116.617 106.438 125.502 99.3616C126.05 98.9256 125.92 97.7936 125.264 97.5156C118.732 94.7446 117.469 86.0296 121.614 80.6366C126.638 74.1016 136.271 74.6736 143.077 77.6216C143.893 77.9746 144.62 76.8326 143.793 76.3966C143.586 76.2876 143.367 76.1916 143.156 76.0886C143.244 75.9666 143.315 75.8216 143.354 75.6406C145.175 67.3106 152.315 60.2126 161.141 59.8656C169.971 59.5186 177.715 65.6646 180.245 73.9356C180.648 75.2536 182.263 75.0596 182.735 73.9356C187.298 63.0896 195.114 49.5386 209.114 54.9366C222.08 59.9356 222.02 77.3946 210.33 83.8486C209.2 84.4726 209.768 86.1256 210.961 86.1786C216.828 86.4396 221.404 90.9086 222.774 96.4986C224.277 102.629 221.15 108.451 216.305 112.078Z" fill="#FFADE1"/>
</svg>
