<svg width="155" height="158" viewBox="0 0 155 158" fill="none" xmlns="http://www.w3.org/2000/svg">
<path d="M154.106 93.4419C149.076 87.4238 141.116 85.182 133.548 86.4693C133.729 83.413 133.667 80.3432 133.333 77.2967C132.156 66.5677 126.743 52.802 118.463 41.9918C123.915 35.2736 131.549 31.4507 140.24 30.5221C141.534 30.3832 141.599 28.4104 140.24 28.4522C131.083 28.7384 122.805 33.4482 117.436 40.6983C109.163 30.4324 98.237 23.1847 85.8987 24.488C86.7955 14.7577 91.8099 6.99899 100.721 2.21305C102.136 1.45389 100.892 -0.484565 99.4924 0.112449C89.9881 4.1687 83.5733 14.4948 83.889 24.7841C83.5426 24.8467 83.1986 24.8861 82.8497 24.9622C82.0476 25.1367 81.7196 25.7447 81.7393 26.37C70.6663 26.0027 59.4766 28.6745 49.6627 33.8621C49.6529 33.829 49.6602 33.7995 49.6467 33.7663C46.954 27.2544 46.045 20.6431 46.5032 13.6251C46.5978 12.1756 44.4468 12.2394 44.2834 13.6251C43.4309 20.8433 44.8055 27.9547 47.836 34.5304C47.8815 34.6299 47.949 34.6999 48.0166 34.7663C39.4975 39.5964 32.1122 46.3601 26.9295 54.7711C24.3805 58.9084 22.4482 63.4143 21.1203 68.1056C14.9315 66.3367 10.0276 62.0765 6.95289 56.1396C6.49468 55.2551 4.93215 55.8767 5.31419 56.8312C7.96758 63.4634 13.8652 68.226 20.6916 69.796C17.1881 83.8479 19.0922 99.3543 26.7047 111.641C18.1573 114.784 10.1247 114.895 1.21002 112.095C0.199033 111.779 -0.517147 113.379 0.475419 113.837C8.99944 117.771 19.3121 117.422 27.5695 112.975C28.4614 114.313 29.4146 115.614 30.4465 116.861C37.2347 125.063 46.8742 130.828 57.4632 134.101C51.2486 143.272 42.7946 149.462 32.1687 153.158C31.1516 153.512 31.5521 155.02 32.6159 154.779C43.8166 152.238 53.5838 144.602 59.2088 134.643C68.003 137.109 77.3759 137.865 86.2844 136.854C87.5202 143.477 86.8544 149.895 84.2403 156.215C83.8473 157.165 85.4921 157.869 85.9135 156.921C88.7904 150.455 89.4685 143.493 87.8187 136.673C92.6084 136.015 97.2432 134.84 101.559 133.135C108.527 130.382 114.527 126.043 119.394 120.674C126.066 125.885 129.833 133.628 130.108 142.106C130.15 143.385 132.101 143.394 132.103 142.106C132.121 132.938 127.84 124.72 120.607 119.25C127.89 110.605 132.396 99.5815 133.425 88.2211C140.774 87.07 147.438 89.7627 152.778 94.7747C153.671 95.6137 154.873 94.3607 154.106 93.4419ZM103.334 128.973C90.6269 134.98 74.5567 135.66 60.1829 131.614C59.9814 131.409 59.6866 131.313 59.4127 131.396C50.4943 128.769 42.2688 124.311 35.967 118.153C23.4617 105.932 19.5639 86.9828 23.8167 70.2812C24.2724 70.3193 24.7306 70.3487 25.1913 70.3586C26.1532 70.3758 26.1126 68.984 25.1913 68.8906C24.8731 68.8587 24.5636 68.8095 24.2503 68.7653C25.152 65.6218 26.3116 62.5593 27.798 59.6602C38.8784 38.0486 63.3412 27.8723 86.653 28.4079C87.2721 28.4227 87.5141 27.9338 87.4342 27.478C109.159 26.3061 126.263 55.3902 129.64 73.6065C133.616 95.0523 123.631 119.378 103.334 128.973Z" fill="#FFF790"/>
<path d="M60.3475 58.9722C60.4015 58.9108 60.4568 58.8457 60.5097 58.7868C61.1656 58.0522 60.1608 57.0399 59.4274 57.7045C58.7161 58.3494 57.9975 59.1491 57.457 60.0287C56.8686 60.6318 56.5296 61.4205 56.6057 62.2362C56.4718 63.1612 56.6352 64.1058 57.2777 65.0063C58.7309 67.043 61.9887 67.5086 62.9776 64.8343C63.7834 62.6538 63.0402 59.2548 60.3475 58.9722ZM60.5158 64.3245C59.9581 64.6598 59.3807 64.1427 59.0134 63.5506C59.2407 63.2766 59.3549 62.9204 59.2136 62.5445C58.9655 61.8836 59.8205 61.3406 60.3647 61.719C60.9175 62.101 61.0882 63.9805 60.5158 64.3245Z" fill="#FFF790"/>
<path d="M101.188 60.1589C100.962 58.6872 99.786 57.5767 98.479 57.1824C98.3254 56.8999 98.0503 56.6873 97.6646 56.6935C94.5825 56.7365 92.6292 60.9033 95.1107 63.0543C97.414 65.0517 101.7 63.4891 101.188 60.1589Z" fill="#FFF790"/>
<path d="M112.686 81.8097C105.663 95.299 95.4066 106.25 79.3082 107.738C64.147 109.138 49.5214 101.098 41.4408 88.4591C40.8512 87.5378 39.425 88.3584 39.9679 89.3202C47.965 103.475 63.9246 112.24 80.2602 110.48C95.1032 108.88 111.124 97.773 114.966 82.7715C115.308 81.4387 113.358 80.5198 112.686 81.8097Z" fill="#FFF790"/>
</svg>
